<svg id="Layer_1" data-name="Layer 1" xmlns="http://www.w3.org/2000/svg" viewBox="0 0 757.02 51.04"><defs><style>.cls-1{fill:#00027f;}.cls-2{fill:#8e8e8e;}.cls-3{fill:#00047f;}.cls-4{fill:#8d8d8d;}.cls-5{fill:#000380;}.cls-6{fill:#00037f;}.cls-7{fill:#8c8c8c;}.cls-8{fill:#00057f;}.cls-9{fill:#00067f;}.cls-10{fill:#00077f;}.cls-11{fill:#8b8b8b;}.cls-12{fill:#8a8a8a;}.cls-13{fill:#000680;}.cls-14{fill:#00097f;}.cls-15{fill:#404040;}.cls-16{fill:#855b0a;}.cls-17{fill:#e5bd83;}.cls-18{fill:#865b0a;}.cls-19{fill:#000d80;}.cls-20{fill:#cbaf83;}.cls-21{fill:#00157f;}.cls-22{fill:#001c80;}.cls-23{fill:#004080;}.cls-24{fill:#745b07;}.cls-25{fill:#7f7f7f;}.cls-26{fill:#676767;}.cls-27{fill:navy;}.cls-28{fill:#001480;}.cls-29{fill:#00407f;}.cls-30{fill:#7f4000;}.cls-31{fill:#a0ce51;}.cls-32{fill:#999;}.cls-33{fill:#666;}.cls-34{fill:#b7ed62;}</style></defs><title>skaterspritesheet</title><path class="cls-1" d="M393.5,58.89c-1.42-.64-1.55-1.57-1-3,.6-1.59.59-3.41,1.21-5,1.23-3.11-.21-4.89-2.69-6.33-1.79-1-3.87-1.82-4.16-4.31,2-3.33,5.07-1.48,7.72-1.68a2.75,2.75,0,0,1,1.77,1.74c4.69,2.87,7.94,7.16,11.3,11.36.47,2.88-1.35,3.74-3.67,4.14-1.17.26-1.64-.86-2.46-1.22s-.67-2.55-2.14-1.73a2.34,2.34,0,0,0-.8,3.17,4,4,0,0,1,.07,1.44C397.23,59.09,395.37,59,393.5,58.89Z" transform="translate(-18.14 -16.99)"/><path class="cls-2" d="M275.59,26c.28.81,1,1.76.76,2.39-1.23,3.45,0,6.84,0,10.25a7.84,7.84,0,0,1-9.49,1.64,1.42,1.42,0,0,1-.73-1.49c.79-1.47-.76-2.65-.51-4,0-1.23.34-2.58-1.07-3.38-1.29-3.84,1.36-7.22,5.88-7.51a2,2,0,0,1,1.44.31C272.74,25.46,274.6,24.84,275.59,26Z" transform="translate(-18.14 -16.99)"/><path class="cls-3" d="M459.33,46.31c1.58,3.89.4,8,1,12,.78,2-.7,2.3-2.06,2.51-1,.15-1.91-.45-2.91-.4a1.68,1.68,0,0,1-.91-.69l-.91-1.49q0-1.11,0-2.21c2.06-5.08-.58-8.61-3.92-11.92a6.13,6.13,0,0,1-2-3.84c2-3.16,4.81-2.5,7.67-1.71C457.11,40.87,458.87,43.25,459.33,46.31Z" transform="translate(-18.14 -16.99)"/><path class="cls-3" d="M512.17,58.19a5.07,5.07,0,0,1,.54-2.84c1.56-4.38-.11-8.06-2.67-11.49a6.84,6.84,0,0,1-1.71-3.59c2.08-3.2,4.93-2.56,7.85-1.59a12.47,12.47,0,0,1,3.37,9.06c-.08,3.25-1.36,6.47-.17,9.74-.3,1.1-1.23,1.71-2,2.47C515.1,61,513.32,60.55,512.17,58.19Z" transform="translate(-18.14 -16.99)"/><path class="cls-2" d="M23.21,40.94l-.29-.73c-1.22-2.49.26-4.69.85-6.94.26-1,.68-1.78,0-2.69-.2-3.54,1.69-5.22,5.91-5.25a2.21,2.21,0,0,1,1.51.27c.66.56,1.49,1,1.59,2C34.12,29.33,35,31.15,33,33c-1.43,1.25.59,3.14-.93,4.31-.92,1.53.54,3.18-.23,4.73a2.91,2.91,0,0,1-1.38,1.35C26.11,44.56,25.07,44.21,23.21,40.94Z" transform="translate(-18.14 -16.99)"/><path class="cls-2" d="M752.14,31.28c.1-4.2,2-5.91,6.52-5.95a2.19,2.19,0,0,1,1.51.27c.66.56,1.49,1,1.59,2,3,3.5.53,6.58-.77,9.74-.74,1.49.51,3-.09,4.53a3,3,0,0,1-1.21,1.39,4.38,4.38,0,0,1-1.21.38c-2.76.67-5.22.64-6.27-2.68-1.15-2.24.29-4.49,0-6.73.62-.16,1.4.53,1.62.31.45-.45-.17-1-.37-1.57A3.31,3.31,0,0,0,752.14,31.28Z" transform="translate(-18.14 -16.99)"/><path class="cls-4" d="M203.88,32c.4-2.48,1.32-4.47,4.28-4.56A3.23,3.23,0,0,1,212,28.93c2.51.63,3.17,2,2.62,4.64a54.38,54.38,0,0,0-.55,8c-1.92,1.53-3.91,2.76-6.49,1.64-1.88-.26-2.24-1.52-2.21-3.17,0-1.46-.13-2.92-.21-4.37C205.53,34.21,204.13,33.33,203.88,32Z" transform="translate(-18.14 -16.99)"/><path class="cls-4" d="M146.83,43.25c-1.89-.26-2.24-1.52-2.21-3.17,0-1.46-.13-2.91-.21-4.37.36-1.5-1-2.38-1.28-3.66.4-2.48,1.32-4.47,4.28-4.56a3.23,3.23,0,0,1,3.85,1.44c2.51.63,3.17,2,2.62,4.63a54.41,54.41,0,0,0-.55,8C151.41,43.14,149.42,44.37,146.83,43.25Z" transform="translate(-18.14 -16.99)"/><path class="cls-4" d="M83.88,31.3c-.09-3,1.8-4.34,4.27-5.22a2.06,2.06,0,0,1,1.46.3A7.44,7.44,0,0,1,91.87,29c3.15,3.06,0,6.59.73,9.82-.54,1,.08,2.27-.55,3.3-1.86,2.42-4.29,2.54-6.95,1.74-2.43-2.08-.52-5-1.44-7.39C83,34.71,85,33.07,83.88,31.3Z" transform="translate(-18.14 -16.99)"/><path class="cls-4" d="M334.21,26.68c1.9.93,1.47,2.69,1.48,4.27,0,2.62-.08,5.24-.12,7.86-1.42,2.79-3.88,1.95-6.14,1.74-2.78-1-3.27-3.44-3.2-5.94,0-1.26.32-2.42-.83-3.32-1-3.23,1-5.84,5.1-6.87a1.28,1.28,0,0,1,1-.2A6.37,6.37,0,0,1,334.21,26.68Z" transform="translate(-18.14 -16.99)"/><path class="cls-5" d="M634.3,46.95c-1.4,4.06-5.29,5.33-8.4,7.46C625,55,624,55.53,623,56.08c-3.37-.23-3.85-2.8-4.32-5.37.58-1.81,2.43-1.76,3.67-2,4.61-.79,6.57-4.15,8.37-7.8,2.62-.43,5.14-.33,7.43,1.24C638.59,45.57,638,46.3,634.3,46.95Z" transform="translate(-18.14 -16.99)"/><path class="cls-6" d="M266.83,40.25l9.49-1.64c3.52,1.87,7.44,1.93,11.25,2.45,1.32.18,2.69-.07,3.86.8,1,1.92.17,3.28-1.37,4.42C286.91,47.86,284,46,281,45.6c-2.65-1-5.44-.13-8.13-.58-1.05-.54-2-1.18-3.09-1.74C268.11,42.94,267,42.09,266.83,40.25Z" transform="translate(-18.14 -16.99)"/><path class="cls-6" d="M328.94,39.51l6.62-.7c1.21,1.51,3,.68,4.49,1,4.46,1,6.52,5,9.88,7.3.42,2.42-1.42,3.23-3,4.21-2.91-.64-4.11-3.28-6-5.12-1.56-1-2.9.57-4.39.4a30.43,30.43,0,0,1-3.87-.92c-.94-.63-2-1.08-3-1.66l-.71-.65C328.92,42.09,328,40.81,328.94,39.51Z" transform="translate(-18.14 -16.99)"/><path class="cls-6" d="M695,46.95c-2.28,4.74-6.85,7.16-10.57,10.44-2.77.18-2.82-1.71-2.79-3.66s1.64-3.17,3-3.93c3.57-2.05,4.83-5.69,6.82-8.85a9.68,9.68,0,0,1,7.43,1.23C699.35,45.57,698.75,46.3,695,46.95Z" transform="translate(-18.14 -16.99)"/><path class="cls-7" d="M395.05,39.37c-2.76.1-5.59-.45-8.21.89-2.8-1.45-.26-3.56-.65-5.3a3,3,0,0,1,3.22.3c-1.45-.75-1.08-3.28-2.52-4.72-1-3.52.83-5.68,5-6a2.2,2.2,0,0,1,1.51.27c.66.56,1.49,1,1.59,2,1.37,3.42.47,7,.6,10.47C395.11,37.91,395.74,38.82,395.05,39.37Z" transform="translate(-18.14 -16.99)"/><path class="cls-5" d="M207.58,43.25c2.12-.71,3.9-2.8,6.49-1.64,3.26,3.12,6.94,5.83,9.27,9.83,1,1.94-.05,2.91-1.67,3.63-2.77-.39-3.69-3.33-6-4.36-3.3.3-4.55-2.15-5.92-4.43C208.69,45.53,207.55,44.81,207.58,43.25Z" transform="translate(-18.14 -16.99)"/><path class="cls-6" d="M752.21,40.94c1.79,2.17,4.37,1.08,6.56,1.58,1.35,1.21,1.05,2.82,1.07,4.35a7.85,7.85,0,0,1-.08,1.14,39.14,39.14,0,0,1-2.35,5,3.22,3.22,0,0,1-.72.82c-2.44,1.46-4.53,3.7-7.73,3.47A4.13,4.13,0,0,1,746.1,53c.2-.31.33-.8.61-.9C752,50.08,753.78,46.34,752.21,40.94Z" transform="translate(-18.14 -16.99)"/><path class="cls-8" d="M85.1,43.85c2-1.71,4.56-1.19,6.79-1.94.57.38.51.84.16,1.32,4,3.15,2.26,7.32,2,11.23a2.15,2.15,0,0,1-1.44,1.74A7.82,7.82,0,0,1,88.53,56a4.55,4.55,0,0,1-.85-.81C89.32,50.84,88.68,47,85.1,43.85Z" transform="translate(-18.14 -16.99)"/><path class="cls-9" d="M634.3,46.95c1.36-1.41,3.53-2.17,3.63-4.57.08-.74.54-.9,1.19-.77a4.75,4.75,0,0,1,1.8,5.55c.87,3.2,1.37,6.39,0,9.58-1.14,2.39-3,2.15-5.07,1.44a4.52,4.52,0,0,1-.6-4.29C636.21,51.3,635.51,49.14,634.3,46.95Z" transform="translate(-18.14 -16.99)"/><path class="cls-9" d="M695,46.95c1.36-1.41,3.53-2.17,3.64-4.57.07-.75.53-.91,1.18-.78a4.75,4.75,0,0,1,1.8,5.55c.87,3.2,1.37,6.39,0,9.58-1.14,2.39-3,2.15-5.07,1.44a4.52,4.52,0,0,1-.6-4.29C697,51.3,696.26,49.14,695,46.95Z" transform="translate(-18.14 -16.99)"/><path class="cls-9" d="M269.78,43.28c1,0,2.08-.16,2.93.64.27.25.55.52.95.44,2.82-.6,4.28.55,4.43,3.4,1.46,3.41-.19,6.53-.95,9.73C276,59,274.4,59.13,272.71,59c-2.17-.34-1.18-1.58-.81-2.71C273.46,51.59,273.78,47.08,269.78,43.28Z" transform="translate(-18.14 -16.99)"/><path class="cls-10" d="M329.7,44c1.05,0,2.14-.18,3,.65,1.12,1.08,2.74-.11,3.88.85,1.46.11,3-.44,4.33.68-2.23-.29-2.93,1.25-2.94,2.92,0,2.79-.92,5.57-.1,8.37-1.4,1.6-3.27,1.54-5.14,1.42-3.11-1.82-.83-4.6-.39-6.26C333.37,48.86,332.06,46.44,329.7,44Z" transform="translate(-18.14 -16.99)"/><path class="cls-3" d="M146.83,43.25c2.12-.71,3.9-2.8,6.49-1.64,5.16,4.36,5.21,4.57,2.5,11.39a3.93,3.93,0,0,1-3.6,1,2.64,2.64,0,0,1-1.53-1,3,3,0,0,1-.46-1.66c.93-2,0-3.55-1.28-5C147.92,45.49,146.79,44.79,146.83,43.25Z" transform="translate(-18.14 -16.99)"/><path class="cls-7" d="M638.65,41.92l-.72.45c-2.45-.26-5.16.81-7.22-1.43-.92-2.59-.24-5.05.57-7.51,3-2,6.46-1.64,8.29.85.25,1,1.25,2.07-.09,3C638.56,38.74,640.48,40.67,638.65,41.92Z" transform="translate(-18.14 -16.99)"/><path class="cls-6" d="M23.21,40.94c2.06,2.23,4.76,1.19,7.21,1.42,1.68,1.33,1.6,3.42,2.23,5.2.08.76.27,1.5.39,2.25a4.92,4.92,0,0,1-1.19,3.66,24.55,24.55,0,0,0-1.7,2.17,2.75,2.75,0,0,1-1,.57,7.84,7.84,0,0,1-4-.17,1.38,1.38,0,0,1-.73-1.46,11.66,11.66,0,0,1,1.12-2.72c1.59-2.14,1.25-4-.34-6C24,44.47,22.79,43,23.21,40.94Z" transform="translate(-18.14 -16.99)"/><path class="cls-4" d="M701,27.59c3,3.51-.12,6.53-.77,9.74-.32.37-.47.94-1.09,1a1.54,1.54,0,0,1-.91-.46c-.8-3.56-4.66-4.54-6.25-7.43-.55-3.3,1.5-5.05,5.93-5.1a2.21,2.21,0,0,1,1.51.27C700.08,26.15,700.91,26.58,701,27.59Z" transform="translate(-18.14 -16.99)"/><path class="cls-4" d="M575.72,40.38c-2.34,1.15-4.83.44-7.25.55-2.55-2.44-.86-5-.19-7.5,3-2,6.46-1.64,8.29.84a4.88,4.88,0,0,1,.53,3c-.62.94.5,2.12-.4,3A.91.91,0,0,1,575.72,40.38Z" transform="translate(-18.14 -16.99)"/><path class="cls-10" d="M759.42,42.32l.74-.4c2.73.89,2.71,3,2.27,5.23.87,3.2,1.37,6.39,0,9.58-1.34,2.47-3.48,2.22-5.71,1.7-1.87-1.75-1.78-3.57-.18-5.44h0c1.62-1.38,1.6-3.46,2.24-5.25l0,0C759.72,46.06,758.56,44.06,759.42,42.32Z" transform="translate(-18.14 -16.99)"/><path class="cls-11" d="M516.42,39.62c-2.74-.41-5.47-.58-8.09.64-2.78-2.26-.37-4.55-.05-6.84,3-2,6.48-1.64,8.29.85a4.72,4.72,0,0,1,.54,3C516.57,38,517.35,39.06,516.42,39.62Z" transform="translate(-18.14 -16.99)"/><path class="cls-12" d="M698.69,38l.68,0c1,1.3,1.26,2.6,0,3.92l-.72.46c-2.45-.25-5.16.81-7.22-1.43-.92-2.59-.26-5.06.57-7.52C696.12,32.21,696.72,36.09,698.69,38Z" transform="translate(-18.14 -16.99)"/><path class="cls-13" d="M573.43,54.55A7.92,7.92,0,0,0,575,50.68c.94-1.63-.26-3.57.74-5.2l0,.05c1-.88-.58-3.15,1.75-3.35C579,43.48,580,44.95,578.81,47c.48,3.26,1.37,6.52-.17,9.74a2.07,2.07,0,0,1-.88.85,4.59,4.59,0,0,1-3.64-.26C573.41,56.52,572.85,55.67,573.43,54.55Z" transform="translate(-18.14 -16.99)"/><path class="cls-4" d="M447.47,30.42c-.47-2.77,1.6-5.11,5.18-5.85a2.22,2.22,0,0,1,1.51.27c.66.56,1.49,1,1.59,2,1.1,1.89.63,3.94.58,5.94C453.07,33.18,449.59,34.37,447.47,30.42Z" transform="translate(-18.14 -16.99)"/><path class="cls-12" d="M455.67,39.63c-2.75-.41-5.47-.58-8.09.64-3.06-1.72.11-4.11-.66-6.08a7.77,7.77,0,0,1,9.43.78q0,1.17,0,2.33C455.82,38,456.6,39.06,455.67,39.63Z" transform="translate(-18.14 -16.99)"/><path class="cls-14" d="M209.77,46.28l5.92,4.43c-2.06,2,.77,4,0,6-1.45,1.94-3.25,1.76-5.17.86a3.79,3.79,0,0,1-.91-3.55C210.13,51.54,210.62,48.89,209.77,46.28Z" transform="translate(-18.14 -16.99)"/><path class="cls-4" d="M517.26,27.59c.76,1.42,2.48,2.68.72,4.5-1.75.69-3.53.27-5.3.15a13.42,13.42,0,0,1-4.51-2.46c.07-3.08,1.9-4.43,6-4.45a2.2,2.2,0,0,1,1.51.27C516.33,26.16,517.16,26.58,517.26,27.59Z" transform="translate(-18.14 -16.99)"/><path class="cls-4" d="M568.17,29.78c.07-3.08,1.9-4.43,6-4.45a2.2,2.2,0,0,1,1.51.27c.66.56,1.49,1,1.59,2,.76,1.42,2.48,2.68.72,4.5-1.75.69-3.53.27-5.3.15A13.42,13.42,0,0,1,568.17,29.78Z" transform="translate(-18.14 -16.99)"/><path class="cls-4" d="M631.17,29.78c.07-3.07,1.89-4.43,6-4.46a2.22,2.22,0,0,1,1.51.27c.66.56,1.49,1,1.59,2,.76,1.42,2.48,2.68.72,4.5-1.75.69-3.53.27-5.3.15A13.42,13.42,0,0,1,631.17,29.78Z" transform="translate(-18.14 -16.99)"/><path class="cls-15" d="M151.19,52.36l.78.72c1.13.73,2.54-.15,3.66.62,2.81,1.14,1.59,4.35,3.15,6.14l-.48.5c-2.92.56-5.86,1.4-8.56-.68l0-2.06c.42-1.16,0-2.34.06-3.5C149.82,53.25,149.67,52.08,151.19,52.36Z" transform="translate(-18.14 -16.99)"/><path class="cls-15" d="M24.44,54.57l.71.68c1.09.74,2.33.22,3.49.4,1.51.73,3.46-.47,4.77,1.1,1.57.69,3.12,1.41,3.88,3.1l-.45.49a24.57,24.57,0,0,1-11.19,0l-.45-.49C25.42,58,22.44,56.65,24.44,54.57Z" transform="translate(-18.14 -16.99)"/><path class="cls-16" d="M698.75,26.12l-.84-.8c-1.39-4.94-.13-7.12,4-6.8,2.86.22,3.94,1.7,3,4.5-1.44.83-2.47.38-3-.42C702.43,24.6,702.14,26.46,698.75,26.12Z" transform="translate(-18.14 -16.99)"/><path class="cls-16" d="M89,26.87l-.84-.8c-1.39-4.93-.13-7.12,4-6.8,2.86.22,3.94,1.7,3,4.5-1.44.83-2.47.38-3-.42C92.68,25.35,92.39,27.21,89,26.87Z" transform="translate(-18.14 -16.99)"/><path class="cls-16" d="M271.25,24.62l-.84-.8c-1.39-4.94-.13-7.12,4-6.8,2.86.22,3.94,1.7,3,4.5-1.43.8-2.48.44-3-.45C274.93,23.1,274.64,25,271.25,24.62Z" transform="translate(-18.14 -16.99)"/><path class="cls-16" d="M331.28,24.66l-.79-.23c-1.47-5.48-.27-7.76,3.95-7.39,2.82.25,3.89,1.73,2.93,4.49-.54.3-1.17.68-1.73.34-1.09-.65-1.11-.65-1.16.75C334.41,24.22,333.08,25.12,331.28,24.66Z" transform="translate(-18.14 -16.99)"/><path class="cls-16" d="M453.5,25.37l-.84-.8c-1.39-4.93-.13-7.12,4-6.8,2.86.22,3.94,1.7,3,4.5-1.41.76-2.53.55-3.12-.66C457.22,23.9,456.84,25.68,453.5,25.37Z" transform="translate(-18.14 -16.99)"/><path class="cls-16" d="M30.5,26.12l-.84-.8c-1.39-4.94-.13-7.12,4-6.81,2.86.22,3.94,1.7,3,4.5-1.43.8-2.48.44-3-.46C34.17,24.59,33.9,26.47,30.5,26.12Z" transform="translate(-18.14 -16.99)"/><path class="cls-16" d="M638,26.12l-.84-.8c-1.39-4.93-.13-7.12,4-6.8,2.86.22,3.94,1.7,3,4.5-1.41.76-2.53.55-3.13-.68C641.72,24.65,641.35,26.43,638,26.12Z" transform="translate(-18.14 -16.99)"/><path class="cls-16" d="M208.32,26.05c-1.71-4.7-.39-7.09,3.78-6.78,2.87.21,4,1.69,3,4.5-1,.86-3.6-1.21-3.44,2.13C211.71,26.82,209.59,28,208.32,26.05Z" transform="translate(-18.14 -16.99)"/><path class="cls-16" d="M147.57,26.05c-1.71-4.7-.39-7.09,3.78-6.78,2.87.21,4,1.69,3,4.5-1,.86-3.6-1.21-3.44,2.13C151,26.82,148.84,28,147.57,26.05Z" transform="translate(-18.14 -16.99)"/><path class="cls-15" d="M87.67,55.19a1.45,1.45,0,0,1,.48.06,6.81,6.81,0,0,0,4.61.09l1.3-.86,4,5.38-.48.5c-2.92.56-5.86,1.4-8.56-.68C88.93,58.06,86.94,57,87.67,55.19Z" transform="translate(-18.14 -16.99)"/><path class="cls-17" d="M328.94,39.51c.87,1.28,2.74,2.55.05,3.87-2.19-1.17-4.63-6.7-4.09-9.19.21-1,.32-1.93.48-2.9h3.34C326.64,34.37,327.13,37,328.94,39.51Z" transform="translate(-18.14 -16.99)"/><path class="cls-17" d="M203.88,32c1.11,1,3.51,1.51,1.28,3.66-2,1.39-3.44,3.44-5.62,4.68-1.37.79-2.48.83-3.08-.49-.87-1.88,1-.93,1.56-1.36A19.19,19.19,0,0,0,203.88,32Z" transform="translate(-18.14 -16.99)"/><path class="cls-17" d="M83.88,31.3c4.47,1.91.68,3.48-.22,5.16-1.46,1.11-2.9,2.23-4.37,3.33a1.71,1.71,0,0,1-2.81-.58c-.93-1.94.9-1,1.49-1.4A18.71,18.71,0,0,0,83.88,31.3Z" transform="translate(-18.14 -16.99)"/><path class="cls-18" d="M759.5,26.12l-.84-.79a8.49,8.49,0,0,1-.6-4.51c1-.47,2.16-.84,2.25-2.25,5-.1,5.9.62,5.31,4.45-.54.3-1.19.69-1.72.34-1.27-.84-1-.31-1.16.79A2.31,2.31,0,0,1,759.5,26.12Z" transform="translate(-18.14 -16.99)"/><path class="cls-18" d="M392.75,25.37l-.84-.79a8.45,8.45,0,0,1-.6-4.51c1-.47,2.16-.84,2.25-2.25,5-.1,5.9.62,5.31,4.45-1.42.79-2.47.45-3-.46C396.41,23.82,396.18,25.74,392.75,25.37Z" transform="translate(-18.14 -16.99)"/><path class="cls-18" d="M575,26.12l-.84-.79a8.47,8.47,0,0,1-.6-4.51c1-.47,2.16-.84,2.25-2.25,5-.1,5.9.62,5.31,4.45-1.42.79-2.46.45-3-.46C578.66,24.56,578.43,26.49,575,26.12Z" transform="translate(-18.14 -16.99)"/><path class="cls-18" d="M515,26.12l-.84-.79a8.47,8.47,0,0,1-.6-4.51c1-.47,2.16-.84,2.25-2.25,5-.1,5.9.62,5.31,4.45-1.42.79-2.46.45-3-.46C518.66,24.56,518.43,26.49,515,26.12Z" transform="translate(-18.14 -16.99)"/><path class="cls-17" d="M143.13,32c1.12,1,3.51,1.51,1.28,3.66-1.6,1.62-3.87,2.45-5,4.64-.42.8-1.29,2.1-2.61.78-1.14-1.14,0-1.74.62-2.41C139.41,36.58,141.81,34.78,143.13,32Z" transform="translate(-18.14 -16.99)"/><path class="cls-17" d="M264.53,31.33c2.27-.19,3.74.22,2.19,2.91-.83.85.18,2.2-.81,3-1.41,1.9-1.17,5.85-5.33,4.24C263.14,38.63,263.69,34.93,264.53,31.33Z" transform="translate(-18.14 -16.99)"/><path class="cls-15" d="M618.68,50.72c2,1.34,2.64,3.77,4.32,5.36-.12,1.09,1.42,2.48-.31,3.24-1.47.65-2.22-.86-2.9-1.72C618.22,55.57,615.82,53.52,618.68,50.72Z" transform="translate(-18.14 -16.99)"/><path class="cls-17" d="M23.75,30.58c1.24.1,2.6.61,1.77,2-1.48,2.4-1.16,5.32-2.6,7.66a4.28,4.28,0,0,1-4,.57C22.11,38.06,21.5,33.67,23.75,30.58Z" transform="translate(-18.14 -16.99)"/><path class="cls-17" d="M147.57,26.05c2.33.45,3.32-.45,3-2.85-.15-1,.14-1.76,1.36-1.67a4.12,4.12,0,0,1,.93.3c-2.18,2.81,1.67.78,1.55,1.93.9,2.88-1.58,3.74-3.1,5.16a4.35,4.35,0,0,1-3.85-1.44Z" transform="translate(-18.14 -16.99)"/><path class="cls-17" d="M208.32,26.05c2.33.45,3.32-.45,3-2.85-.15-1,.14-1.76,1.36-1.67a4.12,4.12,0,0,1,.93.3c-2.18,2.81,1.67.78,1.55,1.93.9,2.88-1.58,3.74-3.1,5.16a4.35,4.35,0,0,1-3.85-1.44Z" transform="translate(-18.14 -16.99)"/><path class="cls-17" d="M456.35,35a45.81,45.81,0,0,0-9.43-.78c-1.57-1.52-.49-2.64.56-3.77,2.73,1.63,6,1.14,8.87,2.36Z" transform="translate(-18.14 -16.99)"/><path class="cls-17" d="M572.7,31.14c1.77.27,3.68-.27,5.28.94-.05,1,.34,2.28-1.41,2.19-2.67-1.2-5.53-.56-8.29-.84-.53-1-1.51-2-.07-3C569.8,30.09,571.43,29.55,572.7,31.14Z" transform="translate(-18.14 -16.99)"/><path class="cls-17" d="M512.7,31.14c1.77.27,3.68-.27,5.28.94,0,1,.33,2.28-1.41,2.19-2.67-1.21-5.53-.55-8.29-.85-.53-1-1.5-2-.07-3C509.8,30.09,511.43,29.55,512.7,31.14Z" transform="translate(-18.14 -16.99)"/><path class="cls-17" d="M271.25,24.62c1.54-1,2.87-2,2.31-4.2-.24-1,.71-1.39,1.41-1.11,2.17.86-.51.48-.29,1,.54,1.27,2,.36,2.68,1.21.86,2.06-.85,3.1-1.77,4.45C273.81,26.62,271.74,28.16,271.25,24.62Z" transform="translate(-18.14 -16.99)"/><path class="cls-17" d="M635.7,31.14c1.77.27,3.68-.27,5.28.94-.05,1,.34,2.28-1.41,2.19-2.67-1.21-5.53-.56-8.29-.85-.53-1-1.51-2-.07-3C632.8,30.09,634.43,29.55,635.7,31.14Z" transform="translate(-18.14 -16.99)"/><path class="cls-17" d="M331.28,24.66c1.44-1,2.85-2,2.29-4.23-.24-.95.71-1.39,1.41-1.11,2.16.86-.51.48-.29,1,.54,1.27,2,.36,2.68,1.21.89,2.91-1.58,3.76-3.16,5.16C332.69,26.78,331.42,26.53,331.28,24.66Z" transform="translate(-18.14 -16.99)"/><path class="cls-17" d="M89,26.87c1.54-1,2.87-2,2.31-4.19-.24-1,.71-1.39,1.41-1.11,2.17.86-.51.48-.29,1,.54,1.27,2,.36,2.68,1.21.9,3-1.65,3.79-3.24,5.22C90.35,29.05,89.14,28.68,89,26.87Z" transform="translate(-18.14 -16.99)"/><path class="cls-17" d="M386.88,30.54c1.11.24,3-.76,2.43,1.94-.34,1.75,1.63,2.26,2.87,3,.79.48,1.61,1,.88,2a1.54,1.54,0,0,1-2.05.18c-1.62-.88-3.21-1.81-4.81-2.72C385.54,33.34,387,32.07,386.88,30.54Z" transform="translate(-18.14 -16.99)"/><path class="cls-17" d="M698.69,38c-1.84.24-2.46-.92-3.31-2.33-.62-1-2.2-1.5-3.35-2.23-.5-1-1.54-2-.05-3C695.88,31.37,699,34.92,698.69,38Z" transform="translate(-18.14 -16.99)"/><path class="cls-17" d="M453.5,25.37c1.54-1,2.87-2,2.31-4.19-.24-1,.71-1.39,1.41-1.11,2.17.86-.51.48-.29,1,.54,1.27,2,.36,2.68,1.21.44,3-1,4.35-3.86,4.57C454.82,26.64,453.6,26.87,453.5,25.37Z" transform="translate(-18.14 -16.99)"/><path class="cls-17" d="M30.5,26.12c1.53-1,2.87-2,2.31-4.2-.24-1,.71-1.39,1.41-1.11,2.17.86-.51.48-.29,1,.54,1.27,2,.36,2.68,1.21.44,3-1,4.35-3.86,4.57C31.82,27.38,30.61,27.61,30.5,26.12Z" transform="translate(-18.14 -16.99)"/><path class="cls-17" d="M515,26.12c1.53-1,2.88-2,2.31-4.19-.24-.95.7-1.39,1.41-1.11,2.16.86-.51.48-.29,1,.54,1.26,2,.37,2.69,1.21.45,3-1,4.35-3.85,4.57C516.32,27.38,515.1,27.62,515,26.12Z" transform="translate(-18.14 -16.99)"/><path class="cls-19" d="M33.4,56.74c-1.6.49-3.19.94-4.46-.7.07-.47.54-.54.81-.81l0,0c.67-.6.57-1.44.71-2.21A4.8,4.8,0,0,0,32,49.92c.61-.37.05-2,1.54-1.43A11,11,0,0,1,33.4,56.74Z" transform="translate(-18.14 -16.99)"/><path class="cls-17" d="M575,26.12c1.53-1,2.88-2,2.31-4.19-.24-.95.7-1.39,1.41-1.11,2.16.86-.51.48-.29,1,.54,1.26,2,.37,2.69,1.21.45,3-1,4.35-3.85,4.57C576.32,27.38,575.1,27.62,575,26.12Z" transform="translate(-18.14 -16.99)"/><path class="cls-17" d="M392.75,25.37c1.54-1,2.88-2,2.31-4.19-.24-.95.7-1.39,1.41-1.11,2.16.86-.51.48-.29,1,.54,1.26,2,.37,2.69,1.21.45,3-1,4.35-3.85,4.57C394.07,26.63,392.85,26.87,392.75,25.37Z" transform="translate(-18.14 -16.99)"/><path class="cls-17" d="M759.5,26.12c1.53-1,2.88-2,2.31-4.19-.24-.95.7-1.39,1.41-1.11,2.16.86-.51.48-.29,1,.54,1.26,2,.37,2.69,1.21.45,3-1,4.36-3.86,4.57C760.82,27.38,759.6,27.62,759.5,26.12Z" transform="translate(-18.14 -16.99)"/><path class="cls-17" d="M638,26.12c1.54-1,2.87-2,2.31-4.19-.24-1,.71-1.39,1.41-1.11,2.17.86-.51.48-.29,1,.54,1.27,2,.36,2.68,1.21.44,3-1,4.35-3.86,4.57C639.32,27.39,638.1,27.62,638,26.12Z" transform="translate(-18.14 -16.99)"/><path class="cls-17" d="M698.75,26.12c1.54-1,2.87-2,2.31-4.2-.24-1,.71-1.39,1.41-1.11,2.17.86-.51.48-.29,1,.54,1.27,2,.36,2.68,1.21.44,3-1,4.35-3.86,4.57C700.07,27.39,698.85,27.61,698.75,26.12Z" transform="translate(-18.14 -16.99)"/><path class="cls-17" d="M752.14,31.28c1.31-.18,4.21-3,2.66,1.61a1.19,1.19,0,0,0,.34,1c.85.87,2.86,1.62.58,2.89-1.87,1-2.68-.31-3-2,0-.2-.32-.35-.49-.53A1.78,1.78,0,0,1,752.14,31.28Z" transform="translate(-18.14 -16.99)"/><path class="cls-15" d="M210.47,57.59c1.58-1.13,3.42-.76,5.17-.86,1.56.7,3.13,1.41,3.89,3.11l-.48.5c-2.92.56-5.86,1.4-8.56-.68Z" transform="translate(-18.14 -16.99)"/><path class="cls-15" d="M346.92,51.32c-.38-2.39,2.19-2.68,3-4.21.87-.88,1.87-2.09,3.07-.92,1.41,1.36-.26,2.29-1.09,2.92C350.47,50.22,349.74,53.26,346.92,51.32Z" transform="translate(-18.14 -16.99)"/><path class="cls-15" d="M578.08,56.75a1.64,1.64,0,0,1,.56,0c1.56.71,3.13,1.41,3.9,3.12l-.5.51c-3.22.53-6.47,1.49-9.49-.68l.18-2.08a1.37,1.37,0,0,1,1.5-.52C575.51,57,576.84,57.49,578.08,56.75Z" transform="translate(-18.14 -16.99)"/><path class="cls-15" d="M221.68,55.07l1.67-3.63a10.25,10.25,0,0,0,1.7-.66c.67-.4,1.26-.85,2-.16a1.42,1.42,0,0,1,.08,2C225.82,54.58,224.78,57.16,221.68,55.07Z" transform="translate(-18.14 -16.99)"/><path class="cls-15" d="M290.07,46.28c-.27-1.7.68-3,1.37-4.42.5-.91,1.13-1.84,2.28-1.29s.79,1.71.41,2.59C293.36,44.92,293.33,47.74,290.07,46.28Z" transform="translate(-18.14 -16.99)"/><path class="cls-15" d="M681.68,53.73c.9,1.25,1.39,2.8,2.79,3.66.24,1,1.43,2.13-.1,2.87-1.31.64-2.43-.18-3.13-1.29C680.12,57.17,679.77,55.33,681.68,53.73Z" transform="translate(-18.14 -16.99)"/><path class="cls-15" d="M454.88,59.82c1.46-1.75,4.35,1.6,5.42-1.52,1,0,1.39.62,1.54,1.5a2.21,2.21,0,0,1,.22,2.91c-2.71.65-5.38,1.1-7.31-1.67A1.53,1.53,0,0,1,454.88,59.82Z" transform="translate(-18.14 -16.99)"/><path class="cls-15" d="M757.24,59.67l.08-1.49,5.07-1.44c1.57.7,3.13,1.41,3.9,3.11l-.48.5C762.89,60.91,759.95,61.75,757.24,59.67Z" transform="translate(-18.14 -16.99)"/><path class="cls-15" d="M635.82,58.18l5.07-1.44c1.57.7,3.13,1.41,3.9,3.11l-.48.5c-2.92.56-5.86,1.4-8.56-.68Z" transform="translate(-18.14 -16.99)"/><path class="cls-15" d="M696.57,58.18l5.07-1.44c1.57.7,3.13,1.41,3.9,3.11l-.48.5c-2.92.56-5.86,1.4-8.56-.68Z" transform="translate(-18.14 -16.99)"/><path class="cls-15" d="M404,55.81l3.67-4.14c.84-.42,1.73-1.25,2.57-.11s-.18,1.83-.86,2.43C407.82,55.35,406.67,58,404,55.81Z" transform="translate(-18.14 -16.99)"/><path class="cls-20" d="M31.14,41.94c.29-1.55-.54-3.32.9-4.65,1,2.6,2,5.18,2.8,7.83.24.79,1.17,2.78-1.36,2a1,1,0,0,1-1-.08A12.76,12.76,0,0,1,31.14,41.94Z" transform="translate(-18.14 -16.99)"/><path class="cls-17" d="M762.42,47.15c-1.15-1.57-.85-3.78-2.27-5.23.34-1.52-.47-3.25.83-4.6,1,2.59,2,5.15,2.83,7.78C764.13,46.08,764.64,47.68,762.42,47.15Z" transform="translate(-18.14 -16.99)"/><path class="cls-17" d="M638.65,41.92c.34-1.52-.48-3.25.83-4.6,1,2.59,2,5.15,2.83,7.78.31,1,.82,2.57-1.4,2C639.77,45.58,640.08,43.38,638.65,41.92Z" transform="translate(-18.14 -16.99)"/><path class="cls-17" d="M699.4,41.92q0-2,0-3.92l.87-.68c1,2.59,2,5.15,2.83,7.78.31,1,.82,2.57-1.4,2C700.52,45.58,700.83,43.38,699.4,41.92Z" transform="translate(-18.14 -16.99)"/><path class="cls-21" d="M151.19,52.36a1.61,1.61,0,0,0-.44,2.32c2,1.95.33,2.33-1,2.92-2.25-2.54-.52-5.08,0-7.61.84-.48,1.17.09,1.47.72Z" transform="translate(-18.14 -16.99)"/><path class="cls-15" d="M272.71,59c1.18-1.36,2.76-1.57,4.42-1.52,1.45.26,2.86.55,3.15,2.36l-.47.5c-2.43.57-4.88,1.29-7.07-.68Q272.72,59.34,272.71,59Z" transform="translate(-18.14 -16.99)"/><path class="cls-15" d="M393.5,58.89c1.43-1.49,3.29-1.43,5.13-1.41,1.06.53,2.31.87,2.41,2.37l-.47.5c-2.43.57-4.88,1.29-7.07-.68Z" transform="translate(-18.14 -16.99)"/><path class="cls-15" d="M332.75,58.9c1.43-1.5,3.3-1.43,5.14-1.42,1.06.53,2.3.87,2.4,2.36l-.47.5c-2.43.57-4.88,1.29-7.07-.68Z" transform="translate(-18.14 -16.99)"/><path class="cls-17" d="M578.81,47a10.63,10.63,0,0,0-1.47-4.49,2,2,0,0,1-.93-2.16c.19-1-.2-2.17.69-3,.91,2.22,1.85,4.44,2.74,6.67C580.63,46,580.39,46.6,578.81,47Z" transform="translate(-18.14 -16.99)"/><path class="cls-17" d="M516.42,39.62c.24-.77-.07-1.7.69-2.32.85,2.14,1.65,4.31,2.58,6.42.62,1.41,1,2.71-.14,4C518.4,45.07,518.34,42,516.42,39.62Z" transform="translate(-18.14 -16.99)"/><path class="cls-17" d="M455.67,39.63c.24-.77-.07-1.71.69-2.32.83,2.28,1.22,4.78,3.25,6.46,1.19,1,.12,1.73-.28,2.55Z" transform="translate(-18.14 -16.99)"/><path class="cls-15" d="M517.27,59.81l-.05-.88c.13-1.37,1.07-1.53,2.17-1.46,1.06.78,3,.44,3.16,2.36l0-.09A4.38,4.38,0,0,1,517.27,59.81Z" transform="translate(-18.14 -16.99)"/><path class="cls-22" d="M151.18,50.71,149.7,50,149,46.25C150.65,47.27,153.44,47.73,151.18,50.71Z" transform="translate(-18.14 -16.99)"/><path class="cls-23" d="M278.08,47.76c-.54-3-3.41-2.81-5.38-3.84,2.84.19,5.78-.12,8.29,1.68C279.4,45.47,277.65,45.15,278.08,47.76Z" transform="translate(-18.14 -16.99)"/><path class="cls-24" d="M393.56,17.82l1.87,1c-1.76-.86-1.81,3.82-4.12,1.27A3.78,3.78,0,0,1,393.56,17.82Z" transform="translate(-18.14 -16.99)"/><path class="cls-24" d="M515.81,18.57l1.87,1c-1.76-.86-1.81,3.82-4.12,1.27A3.78,3.78,0,0,1,515.81,18.57Z" transform="translate(-18.14 -16.99)"/><path class="cls-24" d="M575.81,18.57l1.87,1c-1.76-.86-1.81,3.82-4.12,1.27A3.78,3.78,0,0,1,575.81,18.57Z" transform="translate(-18.14 -16.99)"/><path class="cls-24" d="M760.31,18.57l1.87,1c-1.76-.86-1.81,3.82-4.12,1.27A3.78,3.78,0,0,1,760.31,18.57Z" transform="translate(-18.14 -16.99)"/><path class="cls-25" d="M635.7,31.14c-1.41-.78-3-.57-4.49-.75a5.73,5.73,0,0,0,0-.61C632.73,30.09,634.74,28.85,635.7,31.14Z" transform="translate(-18.14 -16.99)"/><path class="cls-25" d="M572.7,31.14c-1.41-.78-3-.57-4.49-.75a5.73,5.73,0,0,0,0-.61C569.73,30.09,571.74,28.85,572.7,31.14Z" transform="translate(-18.14 -16.99)"/><path class="cls-25" d="M512.7,31.14c-1.41-.78-3-.57-4.49-.75a5.73,5.73,0,0,0,0-.61C509.73,30.09,511.74,28.85,512.7,31.14Z" transform="translate(-18.14 -16.99)"/><path class="cls-26" d="M265.91,37.25c.3-1-.36-2.25.81-3-.12,1.52.42,3.12-.61,4.52Z" transform="translate(-18.14 -16.99)"/><path class="cls-17" d="M92.05,43.24l-.16-1.33c.2-1-.14-2.21.71-3.1C92.59,40.31,93.34,41.9,92.05,43.24Z" transform="translate(-18.14 -16.99)"/><path class="cls-27" d="M453.51,56a1.34,1.34,0,0,1,0,2.21Q452.13,57.13,453.51,56Z" transform="translate(-18.14 -16.99)"/><path class="cls-23" d="M32.71,46.94l.76.22.1,1.33L32,49.92l-.2-2.22A1,1,0,0,1,32.71,46.94Z" transform="translate(-18.14 -16.99)"/><path class="cls-23" d="M155.64,53.71c-1.25-.06-2.58.41-3.66-.63l3.85-.08Q155.75,53.36,155.64,53.71Z" transform="translate(-18.14 -16.99)"/><path class="cls-17" d="M395.05,39.37c.06-.72-.15-1.51.55-2.06-.08,1.08,1.24,1.82.72,3Z" transform="translate(-18.14 -16.99)"/><path class="cls-28" d="M32.71,46.94l-.88.75a10.37,10.37,0,0,1-1.41-5.34l.72-.42A7.32,7.32,0,0,1,32.71,46.94Z" transform="translate(-18.14 -16.99)"/><path class="cls-23" d="M759.42,42.32c-.13,1.83.63,3.77-.69,5.46q0-2.63,0-5.26A1.55,1.55,0,0,1,759.42,42.32Z" transform="translate(-18.14 -16.99)"/><path class="cls-23" d="M336.59,45.52c-1.32-.17-2.79.37-3.88-.85C334,44.91,335.47,44.43,336.59,45.52Z" transform="translate(-18.14 -16.99)"/><path class="cls-23" d="M576.41,40.34l.93,2.16c-1.18.67-.56,2.29-1.61,3q0-2.58,0-5.15A1.26,1.26,0,0,1,576.41,40.34Z" transform="translate(-18.14 -16.99)"/><path class="cls-23" d="M575.75,45.48c-.27,1.73.56,3.62-.74,5.2C575.2,48.94,574.44,47.06,575.75,45.48Z" transform="translate(-18.14 -16.99)"/><path class="cls-23" d="M574.24,57.4l-1.52.19c.1-1-.21-2.19.71-3l.82,2.18Q575,57.08,574.24,57.4Z" transform="translate(-18.14 -16.99)"/><path class="cls-23" d="M758.75,47.73c-.16,2,.47,4.34-2.24,5.25A17.34,17.34,0,0,1,758.75,47.73Z" transform="translate(-18.14 -16.99)"/><path class="cls-29" d="M92.76,55.33a3.77,3.77,0,0,1-4.6-.09Z" transform="translate(-18.14 -16.99)"/><path class="cls-29" d="M29.76,55.24l-.81.81c-1.28-.19-2.71.34-3.79-.8Z" transform="translate(-18.14 -16.99)"/><path class="cls-23" d="M30.43,53.06c1.64,1.34.24,1.7-.71,2.21C29.78,54.47,29.7,53.64,30.43,53.06Z" transform="translate(-18.14 -16.99)"/><path class="cls-23" d="M574.24,57.4q0-.34,0-.67l3.83,0C577,57.87,575.56,57.43,574.24,57.4Z" transform="translate(-18.14 -16.99)"/><path class="cls-30" d="M279.81,60.35" transform="translate(-18.14 -16.99)"/><polygon class="cls-31" points="9.07 43.35 5.77 43.35 6.66 46.17 8.18 46.17 9.07 43.35"/><polygon class="cls-31" points="21.99 43.35 18.69 43.35 19.58 46.17 21.1 46.17 21.99 43.35"/><circle class="cls-32" cx="7.42" cy="46.9" r="1.82"/><path class="cls-33" d="M25.56,64.61a.73.73,0,1,1,.73-.73A.73.73,0,0,1,25.56,64.61Z" transform="translate(-18.14 -16.99)"/><circle class="cls-32" cx="20.34" cy="46.9" r="1.82"/><path class="cls-33" d="M38.48,64.61a.73.73,0,1,1,.73-.73A.73.73,0,0,1,38.48,64.61Z" transform="translate(-18.14 -16.99)"/><path class="cls-34" d="M41.64,61.25H22.41l-3.67-1.67a1,1,0,0,1-.5-1.34h0a1,1,0,0,1,1.34-.5l3.27,1.49H41.2l3.27-1.49a1,1,0,0,1,1.34.5h0a1,1,0,0,1-.5,1.34Z" transform="translate(-18.14 -16.99)"/><polygon class="cls-31" points="69.88 43.6 66.58 43.6 67.47 46.42 68.99 46.42 69.88 43.6"/><polygon class="cls-31" points="82.81 43.6 79.5 43.6 80.4 46.42 81.91 46.42 82.81 43.6"/><circle class="cls-32" cx="68.23" cy="47.15" r="1.82"/><path class="cls-33" d="M86.37,64.86a.73.73,0,1,1,.73-.73A.73.73,0,0,1,86.37,64.86Z" transform="translate(-18.14 -16.99)"/><circle class="cls-32" cx="81.16" cy="47.15" r="1.82"/><path class="cls-33" d="M99.3,64.86a.73.73,0,1,1,.73-.73A.73.73,0,0,1,99.3,64.86Z" transform="translate(-18.14 -16.99)"/><path class="cls-34" d="M102.45,61.5H83.22l-3.67-1.67a1,1,0,0,1-.5-1.34h0a1,1,0,0,1,1.34-.5l3.27,1.49H102L105.29,58a1,1,0,0,1,1.34.5h0a1,1,0,0,1-.5,1.34Z" transform="translate(-18.14 -16.99)"/><polygon class="cls-31" points="129.27 43.18 125.96 43.18 126.86 46 128.37 46 129.27 43.18"/><polygon class="cls-31" points="142.19 43.18 138.89 43.18 139.78 46 141.3 46 142.19 43.18"/><circle class="cls-32" cx="127.62" cy="46.72" r="1.82"/><path class="cls-33" d="M145.76,64.44a.73.73,0,1,1,.73-.73A.73.73,0,0,1,145.76,64.44Z" transform="translate(-18.14 -16.99)"/><circle class="cls-32" cx="140.54" cy="46.72" r="1.82"/><path class="cls-33" d="M158.68,64.44a.73.73,0,1,1,.73-.73A.73.73,0,0,1,158.68,64.44Z" transform="translate(-18.14 -16.99)"/><path class="cls-34" d="M161.83,61.07H142.6l-3.67-1.67a1,1,0,0,1-.5-1.34h0a1,1,0,0,1,1.34-.5L143,59.05H161.4l3.27-1.49a1,1,0,0,1,1.34.5h0a1,1,0,0,1-.5,1.34Z" transform="translate(-18.14 -16.99)"/><polygon class="cls-31" points="192.5 43.99 189.19 43.99 190.09 46.81 191.6 46.81 192.5 43.99"/><polygon class="cls-31" points="205.42 43.99 202.12 43.99 203.01 46.81 204.53 46.81 205.42 43.99"/><circle class="cls-32" cx="190.84" cy="47.54" r="1.82"/><path class="cls-33" d="M209,65.26a.73.73,0,1,1,.73-.73A.73.73,0,0,1,209,65.26Z" transform="translate(-18.14 -16.99)"/><circle class="cls-32" cx="203.77" cy="47.54" r="1.82"/><path class="cls-33" d="M221.91,65.26a.73.73,0,1,1,.73-.73A.73.73,0,0,1,221.91,65.26Z" transform="translate(-18.14 -16.99)"/><path class="cls-34" d="M225.06,61.89H205.83l-3.67-1.67a1,1,0,0,1-.5-1.34h0a1,1,0,0,1,1.34-.5l3.27,1.49h18.35l3.27-1.49a1,1,0,0,1,1.34.5h0a1,1,0,0,1-.5,1.34Z" transform="translate(-18.14 -16.99)"/><polygon class="cls-31" points="253.44 44.07 250.14 44.07 251.03 46.89 252.55 46.89 253.44 44.07"/><polygon class="cls-31" points="266.37 44.07 263.06 44.07 263.96 46.89 265.47 46.89 266.37 44.07"/><circle class="cls-32" cx="251.79" cy="47.62" r="1.82"/><path class="cls-33" d="M269.93,65.33a.73.73,0,1,1,.73-.73A.73.73,0,0,1,269.93,65.33Z" transform="translate(-18.14 -16.99)"/><circle class="cls-32" cx="264.71" cy="47.62" r="1.82"/><path class="cls-33" d="M282.86,65.33a.73.73,0,1,1,.73-.73A.73.73,0,0,1,282.86,65.33Z" transform="translate(-18.14 -16.99)"/><path class="cls-34" d="M286,62H266.78l-3.67-1.67a1,1,0,0,1-.5-1.34h0a1,1,0,0,1,1.34-.5l3.27,1.49h18.35l3.27-1.49a1,1,0,0,1,1.34.5h0a1,1,0,0,1-.5,1.34Z" transform="translate(-18.14 -16.99)"/><polygon class="cls-31" points="313.56 43.57 310.26 43.57 311.15 46.39 312.67 46.39 313.56 43.57"/><polygon class="cls-31" points="326.48 43.57 323.18 43.57 324.07 46.39 325.59 46.39 326.48 43.57"/><circle class="cls-32" cx="311.91" cy="47.12" r="1.82"/><path class="cls-33" d="M330.05,64.83a.73.73,0,1,1,.73-.73A.73.73,0,0,1,330.05,64.83Z" transform="translate(-18.14 -16.99)"/><circle class="cls-32" cx="324.83" cy="47.12" r="1.82"/><path class="cls-33" d="M343,64.83a.73.73,0,1,1,.73-.73A.73.73,0,0,1,343,64.83Z" transform="translate(-18.14 -16.99)"/><path class="cls-34" d="M346.13,61.47H326.9l-3.67-1.67a1,1,0,0,1-.5-1.34h0a1,1,0,0,1,1.34-.5l3.27,1.49h18.35L349,58a1,1,0,0,1,1.34.5h0a1,1,0,0,1-.5,1.34Z" transform="translate(-18.14 -16.99)"/><polygon class="cls-31" points="376.51 43.46 373.2 43.46 374.1 46.28 375.62 46.28 376.51 43.46"/><polygon class="cls-31" points="389.43 43.46 386.13 43.46 387.02 46.28 388.54 46.28 389.43 43.46"/><circle class="cls-32" cx="374.86" cy="47.01" r="1.82"/><path class="cls-33" d="M393,64.72a.73.73,0,1,1,.73-.73A.73.73,0,0,1,393,64.72Z" transform="translate(-18.14 -16.99)"/><circle class="cls-32" cx="387.78" cy="47.01" r="1.82"/><path class="cls-33" d="M405.92,64.72a.73.73,0,1,1,.73-.73A.73.73,0,0,1,405.92,64.72Z" transform="translate(-18.14 -16.99)"/><path class="cls-34" d="M409.08,61.36H389.85l-3.67-1.67a1,1,0,0,1-.5-1.34h0a1,1,0,0,1,1.34-.5l3.27,1.49h18.35l3.27-1.49a1,1,0,0,1,1.34.5h0a1,1,0,0,1-.5,1.34Z" transform="translate(-18.14 -16.99)"/><polygon class="cls-31" points="433.64 45.67 430.34 45.67 431.23 48.49 432.75 48.49 433.64 45.67"/><polygon class="cls-31" points="446.57 45.67 443.26 45.67 444.16 48.49 445.67 48.49 446.57 45.67"/><circle class="cls-32" cx="431.99" cy="49.22" r="1.82"/><path class="cls-33" d="M450.13,66.93a.73.73,0,1,1,.73-.73A.73.73,0,0,1,450.13,66.93Z" transform="translate(-18.14 -16.99)"/><circle class="cls-32" cx="444.91" cy="49.22" r="1.82"/><path class="cls-33" d="M463.06,66.93a.73.73,0,1,1,.73-.73A.73.73,0,0,1,463.06,66.93Z" transform="translate(-18.14 -16.99)"/><path class="cls-34" d="M466.21,63.57H447l-3.67-1.67a1,1,0,0,1-.5-1.34h0a1,1,0,0,1,1.34-.5l3.27,1.49h18.35L469,60.06a1,1,0,0,1,1.34.5h0a1,1,0,0,1-.5,1.34Z" transform="translate(-18.14 -16.99)"/><polygon class="cls-31" points="493.46 43.84 490.16 43.84 491.06 46.66 492.57 46.66 493.46 43.84"/><polygon class="cls-31" points="506.39 43.84 503.08 43.84 503.98 46.66 505.5 46.66 506.39 43.84"/><circle class="cls-32" cx="491.81" cy="47.38" r="1.82"/><path class="cls-33" d="M510,65.1a.73.73,0,1,1,.73-.73A.73.73,0,0,1,510,65.1Z" transform="translate(-18.14 -16.99)"/><circle class="cls-32" cx="504.74" cy="47.38" r="1.82"/><path class="cls-33" d="M522.88,65.1a.73.73,0,1,1,.73-.73A.73.73,0,0,1,522.88,65.1Z" transform="translate(-18.14 -16.99)"/><path class="cls-34" d="M526,61.73H506.8l-3.67-1.67a1,1,0,0,1-.5-1.34h0a1,1,0,0,1,1.34-.5l3.27,1.49h18.35l3.27-1.49a1,1,0,0,1,1.34.5h0a1,1,0,0,1-.5,1.34Z" transform="translate(-18.14 -16.99)"/><polygon class="cls-31" points="551.68 43.44 548.37 43.44 549.27 46.26 550.78 46.26 551.68 43.44"/><polygon class="cls-31" points="564.6 43.44 561.3 43.44 562.19 46.26 563.71 46.26 564.6 43.44"/><circle class="cls-32" cx="550.03" cy="46.99" r="1.82"/><path class="cls-33" d="M568.17,64.71a.73.73,0,1,1,.73-.73A.73.73,0,0,1,568.17,64.71Z" transform="translate(-18.14 -16.99)"/><circle class="cls-32" cx="562.95" cy="46.99" r="1.82"/><path class="cls-33" d="M581.09,64.71a.73.73,0,1,1,.73-.73A.73.73,0,0,1,581.09,64.71Z" transform="translate(-18.14 -16.99)"/><path class="cls-34" d="M584.25,61.34H565l-3.67-1.67a1,1,0,0,1-.5-1.34h0a1,1,0,0,1,1.34-.5l3.27,1.49h18.35l3.27-1.49a1,1,0,0,1,1.34.5h0a1,1,0,0,1-.5,1.34Z" transform="translate(-18.14 -16.99)"/><path class="cls-15" d="M566.92,57.44c1.88.47,3.14,2.33,5.23,2.35l.76.85c1,2.39-.49,2.53-2.21,2.49a3.12,3.12,0,0,1-3.17-2.52l-.8-.18a2.6,2.6,0,0,1-.75-1.51Z" transform="translate(-18.14 -16.99)"/><path class="cls-1" d="M566.92,57.44c3.32-5.24,2.6-10.86,1.55-16.51,2.17-2.22,4.75-1.62,7.32-1,1.5,1.32.92,3.11,1.06,4.73,0,.39,0,.79,0,1.19-.2,1.66-1,3.25-.61,5A9.46,9.46,0,0,1,575,55a4.41,4.41,0,0,0-1.09,2.9,2.76,2.76,0,0,1-.72,2.09,2.69,2.69,0,0,1-1,.59C569.54,60.94,567.93,59.7,566.92,57.44Z" transform="translate(-18.14 -16.99)"/><path class="cls-15" d="M512.17,58.19c1.7.1,3.09,2.36,5,.74a2.16,2.16,0,0,1,.89.32,6.18,6.18,0,0,1,1,1.05c.66,1,1.46,1.89.4,3.07h-5.26a10.33,10.33,0,0,1-3.53-2.1,1.35,1.35,0,0,1-.24-1.46Z" transform="translate(-18.14 -16.99)"/><polygon class="cls-31" points="617.31 43.84 614.01 43.84 614.9 46.66 616.42 46.66 617.31 43.84"/><polygon class="cls-31" points="630.23 43.84 626.93 43.84 627.82 46.66 629.34 46.66 630.23 43.84"/><circle class="cls-32" cx="615.66" cy="47.38" r="1.82"/><path class="cls-33" d="M633.8,65.1a.73.73,0,1,1,.73-.73A.73.73,0,0,1,633.8,65.1Z" transform="translate(-18.14 -16.99)"/><circle class="cls-32" cx="628.58" cy="47.38" r="1.82"/><path class="cls-33" d="M646.73,65.1a.73.73,0,1,1,.73-.73A.73.73,0,0,1,646.73,65.1Z" transform="translate(-18.14 -16.99)"/><path class="cls-34" d="M649.88,61.73H630.65L627,60.06a1,1,0,0,1-.5-1.34h0a1,1,0,0,1,1.34-.5l3.27,1.49h18.35l3.27-1.49a1,1,0,0,1,1.34.5h0a1,1,0,0,1-.5,1.34Z" transform="translate(-18.14 -16.99)"/><polygon class="cls-31" points="678.33 43.91 675.03 43.91 675.92 46.73 677.44 46.73 678.33 43.91"/><polygon class="cls-31" points="691.25 43.91 687.95 43.91 688.84 46.73 690.36 46.73 691.25 43.91"/><circle class="cls-32" cx="676.68" cy="47.46" r="1.82"/><path class="cls-33" d="M694.82,65.17a.73.73,0,1,1,.73-.73A.73.73,0,0,1,694.82,65.17Z" transform="translate(-18.14 -16.99)"/><circle class="cls-32" cx="689.6" cy="47.46" r="1.82"/><path class="cls-33" d="M707.74,65.17a.73.73,0,1,1,.73-.73A.73.73,0,0,1,707.74,65.17Z" transform="translate(-18.14 -16.99)"/><path class="cls-34" d="M710.9,61.81H691.67L688,60.14a1,1,0,0,1-.5-1.34h0a1,1,0,0,1,1.34-.5l3.27,1.49h18.35l3.27-1.49a1,1,0,0,1,1.34.5h0a1,1,0,0,1-.5,1.34Z" transform="translate(-18.14 -16.99)"/><polygon class="cls-31" points="738.33 43.98 735.03 43.98 735.92 46.8 737.44 46.8 738.33 43.98"/><polygon class="cls-31" points="751.25 43.98 747.95 43.98 748.84 46.8 750.36 46.8 751.25 43.98"/><circle class="cls-32" cx="736.68" cy="47.53" r="1.82"/><path class="cls-33" d="M754.82,65.25a.73.73,0,1,1,.73-.73A.73.73,0,0,1,754.82,65.25Z" transform="translate(-18.14 -16.99)"/><circle class="cls-32" cx="749.6" cy="47.53" r="1.82"/><path class="cls-33" d="M767.75,65.25a.73.73,0,1,1,.73-.73A.73.73,0,0,1,767.75,65.25Z" transform="translate(-18.14 -16.99)"/><path class="cls-34" d="M770.9,61.88H751.67L748,60.21a1,1,0,0,1-.5-1.34h0a1,1,0,0,1,1.34-.5l3.27,1.49h18.35l3.27-1.49a1,1,0,0,1,1.34.5h0a1,1,0,0,1-.5,1.34Z" transform="translate(-18.14 -16.99)"/><path class="cls-15" d="M749,56.64a5.26,5.26,0,0,1,.69,3.09c-4.39-1-5.74-3.53-3.57-6.73Z" transform="translate(-18.14 -16.99)"/></svg>