<?xml version="1.0" encoding="utf-8"?>
<!-- Generator: Adobe Illustrator 21.0.0, SVG Export Plug-In . SVG Version: 6.00 Build 0)  -->
<svg version="1.1" id="Layer_1" xmlns="http://www.w3.org/2000/svg" xmlns:xlink="http://www.w3.org/1999/xlink" x="0px" y="0px"
	 viewBox="0 0 793.6 82.5" style="enable-background:new 0 0 793.6 82.5;" xml:space="preserve">
<style type="text/css">
	.st0{fill:#8E8E8E;}
	.st1{fill:#00037F;}
	.st2{fill:#404040;}
	.st3{fill:#855B0A;}
	.st4{fill:#E5BD83;}
	.st5{fill:#000D80;}
	.st6{fill:#CBAF83;}
	.st7{fill:#004080;}
	.st8{fill:#001480;}
	.st9{fill:#00407F;}
	.st10{fill:#A0CE51;}
	.st11{fill:#999999;}
	.st12{fill:#666666;}
	.st13{fill:#B7ED62;}
	.st14{fill:#8D8D8D;}
	.st15{fill:#00057F;}
	.st16{fill:#00047F;}
	.st17{fill:#00157F;}
	.st18{fill:#001C80;}
	.st19{fill:#000380;}
	.st20{fill:#00097F;}
	.st21{fill:#00067F;}
	.st22{fill:#676767;}
	.st23{fill:#7F4000;}
	.st24{fill:#00077F;}
	.st25{fill:#00027F;}
	.st26{fill:#8C8C8C;}
	.st27{fill:#865B0A;}
	.st28{fill:#745B07;}
	.st29{fill:#8A8A8A;}
	.st30{fill:#000080;}
	.st31{fill:#000680;}
	.st32{fill:#7F7F7F;}
	.st33{fill:#8B8B8B;}
</style>
<g>
	<path class="st0" d="M23.2,40.9c-0.1-0.2-0.2-0.5-0.3-0.7c-1.2-2.5,0.3-4.7,0.8-6.9c0.3-1,0.7-1.8,0-2.7c-0.2-3.5,1.7-5.2,5.9-5.3
		c0.5-0.1,1,0,1.5,0.3c0.7,0.6,1.5,1,1.6,2c1.4,1.7,2.3,3.6,0.2,5.4c-1.4,1.3,0.6,3.1-0.9,4.3c-0.9,1.5,0.5,3.2-0.2,4.7
		c-0.3,0.6-0.8,1.1-1.4,1.4C26.1,44.6,25.1,44.2,23.2,40.9z"/>
	<path class="st1" d="M23.2,40.9c2.1,2.2,4.8,1.2,7.2,1.4c1.7,1.3,1.6,3.4,2.2,5.2c0.1,0.8,0.3,1.5,0.4,2.2c0.2,1.4-0.3,2.6-1.2,3.7
		c-0.7,0.6-1.1,1.5-1.7,2.2c-0.3,0.3-0.6,0.4-1,0.6c-1.3,0.2-2.7,0.3-4-0.2c-0.5-0.3-0.8-0.8-0.7-1.5c0.4-0.9,0.6-2,1.1-2.7
		c1.6-2.1,1.3-4-0.3-6C24,44.5,22.8,43,23.2,40.9z"/>
	<path class="st2" d="M24.4,54.6c0.2,0.2,0.5,0.5,0.7,0.7c1.1,0.7,2.3,0.2,3.5,0.4c1.5,0.7,3.5-0.5,4.8,1.1c1.6,0.7,3.1,1.4,3.9,3.1
		c-0.2,0.2-0.3,0.3-0.5,0.5c-3.7,0.9-7.5,0.9-11.2,0c-0.2-0.2-0.3-0.3-0.5-0.5C25.4,58,22.4,56.6,24.4,54.6z"/>
	<path class="st3" d="M30.5,26.1c-0.3-0.3-0.6-0.5-0.8-0.8c-1.4-4.9-0.1-7.1,4-6.8c2.9,0.2,3.9,1.7,3,4.5c-1.4,0.8-2.5,0.4-3-0.5
		C34.2,24.6,33.9,26.5,30.5,26.1z"/>
	<path class="st4" d="M23.7,30.6c1.2,0.1,2.6,0.6,1.8,2c-1.5,2.4-1.2,5.3-2.6,7.7c-1.2,0.9-2.5,1-4,0.6
		C22.1,38.1,21.5,33.7,23.7,30.6z"/>
	<path class="st4" d="M30.5,26.1c1.5-1,2.9-2,2.3-4.2c-0.2-1,0.7-1.4,1.4-1.1c2.2,0.9-0.5,0.5-0.3,1c0.5,1.3,2,0.4,2.7,1.2
		c0.4,3-1,4.4-3.9,4.6C31.8,27.4,30.6,27.6,30.5,26.1z"/>
	<path class="st5" d="M33.4,56.7c-1.6,0.5-3.2,0.9-4.5-0.7c0.1-0.5,0.5-0.5,0.8-0.8l0,0c0.7-0.6,0.6-1.4,0.7-2.2
		c1-0.8,1.4-1.9,1.6-3.1c0.6-0.4,0.1-2,1.5-1.4C34.5,51.3,34.6,54,33.4,56.7z"/>
	<path class="st6" d="M31.1,41.9c0.3-1.6-0.5-3.3,0.9-4.7c1,2.6,2,5.2,2.8,7.8c0.2,0.8,1.2,2.8-1.4,2c-0.4,0.1-0.7,0.1-1-0.1
		C31.7,45.4,31.1,43.8,31.1,41.9z"/>
	<path class="st7" d="M32.7,46.9c0.3,0.1,0.5,0.1,0.8,0.2c0,0.4,0.1,0.9,0.1,1.3c-0.5,0.5-1,1-1.5,1.4c-0.1-0.7-0.1-1.5-0.2-2.2
		C32,47.3,32.3,47,32.7,46.9z"/>
	<path class="st8" d="M32.7,46.9c-0.3,0.3-0.6,0.5-0.9,0.8c-1.1-1.6-1.3-3.5-1.4-5.3c0.2-0.1,0.5-0.3,0.7-0.4
		C32.2,43.4,32.9,45.1,32.7,46.9z"/>
	<path class="st9" d="M29.8,55.2c-0.3,0.3-0.5,0.5-0.8,0.8c-1.3-0.2-2.7,0.3-3.8-0.8C26.7,55.2,28.2,55.2,29.8,55.2z"/>
	<path class="st7" d="M30.4,53.1c1.6,1.3,0.2,1.7-0.7,2.2C29.8,54.5,29.7,53.6,30.4,53.1z"/>
	<g>
		<polygon class="st10" points="27.2,60.3 23.9,60.3 24.8,63.2 26.3,63.2 		"/>
		<polygon class="st10" points="40.1,60.3 36.8,60.3 37.7,63.2 39.2,63.2 		"/>
		<circle class="st11" cx="25.6" cy="63.9" r="1.8"/>
		<path class="st12" d="M25.6,64.6c-0.4,0-0.7-0.3-0.7-0.7c0-0.4,0.3-0.7,0.7-0.7c0.4,0,0.7,0.3,0.7,0.7
			C26.3,64.3,26,64.6,25.6,64.6z"/>
		<circle class="st11" cx="38.5" cy="63.9" r="1.8"/>
		<path class="st12" d="M38.5,64.6c-0.4,0-0.7-0.3-0.7-0.7c0-0.4,0.3-0.7,0.7-0.7s0.7,0.3,0.7,0.7C39.2,64.3,38.9,64.6,38.5,64.6z"
			/>
		<path class="st13" d="M41.6,61.2H22.4l-3.7-1.7c-0.5-0.2-0.7-0.8-0.5-1.3l0,0c0.2-0.5,0.8-0.7,1.3-0.5l3.3,1.5h18.4l3.3-1.5
			c0.5-0.2,1.1,0,1.3,0.5l0,0c0.2,0.5,0,1.1-0.5,1.3L41.6,61.2z"/>
	</g>
</g>
<g>
	<path class="st14" d="M83.9,31.3c-0.1-3,1.8-4.3,4.3-5.2c0.5-0.1,1,0,1.5,0.3c0.9,0.8,1.8,1.5,2.3,2.6c3.1,3.1,0,6.6,0.7,9.8
		c-0.5,1,0.1,2.3-0.5,3.3c-1.9,2.4-4.3,2.5-6.9,1.7c-2.4-2.1-0.5-5-1.4-7.4C83,34.7,85,33.1,83.9,31.3z"/>
	<path class="st15" d="M85.1,43.9c2-1.7,4.6-1.2,6.8-1.9c0.6,0.4,0.5,0.8,0.2,1.3c4,3.2,2.3,7.3,2,11.2c-0.2,0.8-0.6,1.4-1.4,1.7
		c-1.4,0.2-2.7,0.3-4.1-0.2c-0.3-0.2-0.6-0.5-0.9-0.8C89.3,50.8,88.7,47,85.1,43.9z"/>
	<path class="st3" d="M89,26.9c-0.3-0.3-0.6-0.5-0.8-0.8c-1.4-4.9-0.1-7.1,4-6.8c2.9,0.2,3.9,1.7,3,4.5c-1.4,0.8-2.5,0.4-3-0.4
		C92.7,25.4,92.4,27.2,89,26.9z"/>
	<path class="st2" d="M87.7,55.2c0.2,0,0.3,0,0.5,0.1c1.5,0.6,3.1,0.5,4.6,0.1c0.4-0.3,0.9-0.6,1.3-0.9c1.3,1.8,2.7,3.6,4,5.4
		c-0.2,0.2-0.3,0.3-0.5,0.5c-2.9,0.6-5.9,1.4-8.6-0.7C88.9,58.1,86.9,57,87.7,55.2z"/>
	<path class="st4" d="M83.9,31.3c4.5,1.9,0.7,3.5-0.2,5.2c-1.5,1.1-2.9,2.2-4.4,3.3c-1.1,0.9-2.3,0.6-2.8-0.6
		c-0.9-1.9,0.9-1,1.5-1.4C80.4,36.1,82.5,34,83.9,31.3z"/>
	<path class="st4" d="M89,26.9c1.5-1,2.9-2,2.3-4.2c-0.2-1,0.7-1.4,1.4-1.1c2.2,0.9-0.5,0.5-0.3,1c0.5,1.3,2,0.4,2.7,1.2
		c0.9,3-1.7,3.8-3.2,5.2C90.3,29.1,89.1,28.7,89,26.9z"/>
	<path class="st4" d="M92.1,43.2c-0.1-0.4-0.1-0.9-0.2-1.3c0.2-1-0.1-2.2,0.7-3.1C92.6,40.3,93.3,41.9,92.1,43.2z"/>
	<path class="st9" d="M92.8,55.3c-1.6,1-3.1,1-4.6-0.1C89.7,55.3,91.2,55.3,92.8,55.3z"/>
	<g>
		<polygon class="st10" points="88,60.6 84.7,60.6 85.6,63.4 87.1,63.4 		"/>
		<polygon class="st10" points="100.9,60.6 97.6,60.6 98.5,63.4 100.1,63.4 		"/>
		<circle class="st11" cx="86.4" cy="64.1" r="1.8"/>
		<path class="st12" d="M86.4,64.9c-0.4,0-0.7-0.3-0.7-0.7c0-0.4,0.3-0.7,0.7-0.7c0.4,0,0.7,0.3,0.7,0.7
			C87.1,64.5,86.8,64.9,86.4,64.9z"/>
		<circle class="st11" cx="99.3" cy="64.1" r="1.8"/>
		<path class="st12" d="M99.3,64.9c-0.4,0-0.7-0.3-0.7-0.7c0-0.4,0.3-0.7,0.7-0.7s0.7,0.3,0.7,0.7C100,64.5,99.7,64.9,99.3,64.9z"/>
		<path class="st13" d="M102.5,61.5H83.2l-3.7-1.7C79,59.6,78.8,59,79,58.5l0,0c0.2-0.5,0.8-0.7,1.3-0.5l3.3,1.5H102l3.3-1.5
			c0.5-0.2,1.1,0,1.3,0.5l0,0c0.2,0.5,0,1.1-0.5,1.3L102.5,61.5z"/>
	</g>
</g>
<g>
	<path class="st14" d="M146.8,43.2c-1.9-0.3-2.2-1.5-2.2-3.2c0-1.5-0.1-2.9-0.2-4.4c0.4-1.5-1-2.4-1.3-3.7c0.4-2.5,1.3-4.5,4.3-4.6
		c1.6-0.4,2.9,0,3.9,1.4c2.5,0.6,3.2,2,2.6,4.6c-0.5,2.6-0.4,5.4-0.6,8C151.4,43.1,149.4,44.4,146.8,43.2z"/>
	<path class="st16" d="M146.8,43.2c2.1-0.7,3.9-2.8,6.5-1.6c5.2,4.4,5.2,4.6,2.5,11.4c-1,1-2.3,1.2-3.6,1c-0.6-0.2-1.1-0.5-1.5-1
		c-0.3-0.5-0.5-1.1-0.5-1.7c0.9-2,0-3.5-1.3-5C147.9,45.5,146.8,44.8,146.8,43.2z"/>
	<path class="st2" d="M151.2,52.4c0.3,0.2,0.5,0.5,0.8,0.7c1.1,0.7,2.5-0.2,3.7,0.6c2.8,1.1,1.6,4.4,3.1,6.1
		c-0.2,0.2-0.3,0.3-0.5,0.5c-2.9,0.6-5.9,1.4-8.6-0.7c0-0.7,0-1.4,0-2.1c0.4-1.2,0-2.3,0.1-3.5C149.8,53.2,149.7,52.1,151.2,52.4z"
		/>
	<path class="st3" d="M147.6,26.1c-1.7-4.7-0.4-7.1,3.8-6.8c2.9,0.2,4,1.7,3,4.5c-1,0.9-3.6-1.2-3.4,2.1
		C151,26.8,148.8,28,147.6,26.1z"/>
	<path class="st4" d="M143.1,32c1.1,1,3.5,1.5,1.3,3.7c-1.6,1.6-3.9,2.4-5,4.6c-0.4,0.8-1.3,2.1-2.6,0.8c-1.1-1.1,0-1.7,0.6-2.4
		C139.4,36.6,141.8,34.8,143.1,32z"/>
	<path class="st4" d="M147.6,26.1c2.3,0.4,3.3-0.5,3-2.9c-0.2-1,0.1-1.8,1.4-1.7c0.3,0,0.6,0.2,0.9,0.3c-2.2,2.8,1.7,0.8,1.6,1.9
		c0.9,2.9-1.6,3.7-3.1,5.2c-1.5,0.2-2.8-0.3-3.9-1.4C147.5,27,147.5,26.5,147.6,26.1z"/>
	<path class="st17" d="M151.2,52.4c-0.9,0.6-1,1.8-0.4,2.3c2,1.9,0.3,2.3-1,2.9c-2.3-2.5-0.5-5.1,0-7.6c0.8-0.5,1.2,0.1,1.5,0.7
		C151.2,51.3,151.2,51.8,151.2,52.4z"/>
	<path class="st18" d="M151.2,50.7c-0.5-0.2-1-0.5-1.5-0.7c-0.2-1.2-0.5-2.5-0.7-3.7C150.7,47.3,153.4,47.7,151.2,50.7z"/>
	<path class="st7" d="M155.6,53.7c-1.2-0.1-2.6,0.4-3.7-0.6c1.3,0,2.6-0.1,3.9-0.1C155.8,53.2,155.7,53.5,155.6,53.7z"/>
	<g>
		<polygon class="st10" points="147.4,60.2 144.1,60.2 145,63 146.5,63 		"/>
		<polygon class="st10" points="160.3,60.2 157,60.2 157.9,63 159.4,63 		"/>
		<circle class="st11" cx="145.8" cy="63.7" r="1.8"/>
		<path class="st12" d="M145.8,64.4c-0.4,0-0.7-0.3-0.7-0.7c0-0.4,0.3-0.7,0.7-0.7s0.7,0.3,0.7,0.7
			C146.5,64.1,146.2,64.4,145.8,64.4z"/>
		<circle class="st11" cx="158.7" cy="63.7" r="1.8"/>
		<path class="st12" d="M158.7,64.4c-0.4,0-0.7-0.3-0.7-0.7c0-0.4,0.3-0.7,0.7-0.7s0.7,0.3,0.7,0.7
			C159.4,64.1,159.1,64.4,158.7,64.4z"/>
		<path class="st13" d="M161.8,61.1h-19.2l-3.7-1.7c-0.5-0.2-0.7-0.8-0.5-1.3l0,0c0.2-0.5,0.8-0.7,1.3-0.5l3.3,1.5h18.4l3.3-1.5
			c0.5-0.2,1.1,0,1.3,0.5l0,0c0.2,0.5,0,1.1-0.5,1.3L161.8,61.1z"/>
	</g>
</g>
<g>
	<path class="st14" d="M203.9,32c0.4-2.5,1.3-4.5,4.3-4.6c1.6-0.4,2.9,0,3.9,1.4c2.5,0.6,3.2,2,2.6,4.6c-0.6,2.6-0.4,5.4-0.6,8
		c-1.9,1.5-3.9,2.8-6.5,1.6c-1.9-0.3-2.2-1.5-2.2-3.2c0-1.5-0.1-2.9-0.2-4.4C205.5,34.2,204.1,33.3,203.9,32z"/>
	<path class="st19" d="M207.6,43.3c2.1-0.7,3.9-2.8,6.5-1.6c3.3,3.1,6.9,5.8,9.3,9.8c1,1.9-0.1,2.9-1.7,3.6c-2.8-0.4-3.7-3.3-6-4.4
		c-3.3,0.3-4.5-2.1-5.9-4.4C208.7,45.5,207.6,44.8,207.6,43.3z"/>
	<path class="st20" d="M209.8,46.3c2,1.5,3.9,3,5.9,4.4c-2.1,2,0.8,4,0,6c-1.4,1.9-3.3,1.8-5.2,0.9c-0.8-1.1-1.3-2-0.9-3.6
		C210.1,51.5,210.6,48.9,209.8,46.3z"/>
	<path class="st3" d="M208.3,26.1c-1.7-4.7-0.4-7.1,3.8-6.8c2.9,0.2,4,1.7,3,4.5c-1,0.9-3.6-1.2-3.4,2.1
		C211.7,26.8,209.6,28,208.3,26.1z"/>
	<path class="st4" d="M203.9,32c1.1,1,3.5,1.5,1.3,3.7c-2,1.4-3.4,3.4-5.6,4.7c-1.4,0.8-2.5,0.8-3.1-0.5c-0.9-1.9,1-0.9,1.6-1.4
		C200.4,36.8,202.5,34.7,203.9,32z"/>
	<path class="st4" d="M208.3,26.1c2.3,0.4,3.3-0.5,3-2.9c-0.2-1,0.1-1.8,1.4-1.7c0.3,0,0.6,0.2,0.9,0.3c-2.2,2.8,1.7,0.8,1.6,1.9
		c0.9,2.9-1.6,3.7-3.1,5.2c-1.5,0.2-2.8-0.3-3.9-1.4C208.2,27,208.3,26.5,208.3,26.1z"/>
	<path class="st2" d="M210.5,57.6c1.6-1.1,3.4-0.8,5.2-0.9c1.6,0.7,3.1,1.4,3.9,3.1c-0.2,0.2-0.3,0.3-0.5,0.5
		c-2.9,0.6-5.9,1.4-8.6-0.7C210.5,59,210.5,58.3,210.5,57.6z"/>
	<path class="st2" d="M221.7,55.1c0.6-1.2,1.1-2.4,1.7-3.6c0.6-0.2,1.2-0.3,1.7-0.7c0.7-0.4,1.3-0.8,2-0.2c0.7,0.6,0.5,1.4,0.1,2
		C225.8,54.6,224.8,57.2,221.7,55.1z"/>
	<g>
		<polygon class="st10" points="210.6,61 207.3,61 208.2,63.8 209.7,63.8 		"/>
		<polygon class="st10" points="223.6,61 220.3,61 221.2,63.8 222.7,63.8 		"/>
		<circle class="st11" cx="209" cy="64.5" r="1.8"/>
		<path class="st12" d="M209,65.3c-0.4,0-0.7-0.3-0.7-0.7c0-0.4,0.3-0.7,0.7-0.7c0.4,0,0.7,0.3,0.7,0.7
			C209.7,64.9,209.4,65.3,209,65.3z"/>
		<circle class="st11" cx="221.9" cy="64.5" r="1.8"/>
		<path class="st12" d="M221.9,65.3c-0.4,0-0.7-0.3-0.7-0.7c0-0.4,0.3-0.7,0.7-0.7c0.4,0,0.7,0.3,0.7,0.7
			C222.6,64.9,222.3,65.3,221.9,65.3z"/>
		<path class="st13" d="M225.1,61.9h-19.2l-3.7-1.7c-0.5-0.2-0.7-0.8-0.5-1.3l0,0c0.2-0.5,0.8-0.7,1.3-0.5l3.3,1.5h18.4l3.3-1.5
			c0.5-0.2,1.1,0,1.3,0.5l0,0c0.2,0.5,0,1.1-0.5,1.3L225.1,61.9z"/>
	</g>
</g>
<g>
	<path class="st0" d="M275.6,26c0.3,0.8,1,1.8,0.8,2.4c-1.2,3.4,0,6.8,0,10.2c-2.8,2.7-6.1,3.3-9.5,1.6c-0.6-0.3-0.8-0.8-0.7-1.5
		c0.8-1.5-0.8-2.6-0.5-4c0-1.2,0.3-2.6-1.1-3.4c-1.3-3.8,1.4-7.2,5.9-7.5c0.5-0.1,1,0,1.4,0.3C272.7,25.5,274.6,24.8,275.6,26z"/>
	<path class="st1" d="M266.8,40.3c3.2-0.5,6.3-1.1,9.5-1.6c3.5,1.9,7.4,1.9,11.3,2.5c1.3,0.2,2.7-0.1,3.9,0.8c1,1.9,0.2,3.3-1.4,4.4
		c-3.2,1.6-6.1-0.3-9.1-0.7c-2.6-1-5.4-0.1-8.1-0.6c-1.1-0.5-2-1.2-3.1-1.7C268.1,42.9,267,42.1,266.8,40.3z"/>
	<path class="st21" d="M269.8,43.3c1,0,2.1-0.2,2.9,0.6c0.3,0.2,0.6,0.5,0.9,0.4c2.8-0.6,4.3,0.5,4.4,3.4c1.5,3.4-0.2,6.5-0.9,9.7
		c-1.1,1.5-2.7,1.6-4.4,1.5c-2.2-0.3-1.2-1.6-0.8-2.7C273.5,51.6,273.8,47.1,269.8,43.3z"/>
	<path class="st3" d="M271.2,24.6c-0.3-0.3-0.6-0.5-0.8-0.8c-1.4-4.9-0.1-7.1,4-6.8c2.9,0.2,3.9,1.7,3,4.5c-1.4,0.8-2.5,0.4-3-0.5
		C274.9,23.1,274.6,25,271.2,24.6z"/>
	<path class="st4" d="M264.5,31.3c2.3-0.2,3.7,0.2,2.2,2.9c-0.8,0.8,0.2,2.2-0.8,3c-1.4,1.9-1.2,5.8-5.3,4.2
		C263.1,38.6,263.7,34.9,264.5,31.3z"/>
	<path class="st4" d="M271.2,24.6c1.5-1,2.9-2,2.3-4.2c-0.2-1,0.7-1.4,1.4-1.1c2.2,0.9-0.5,0.5-0.3,1c0.5,1.3,2,0.4,2.7,1.2
		c0.9,2.1-0.8,3.1-1.8,4.5C273.8,26.6,271.7,28.2,271.2,24.6z"/>
	<path class="st2" d="M290.1,46.3c-0.3-1.7,0.7-3,1.4-4.4c0.5-0.9,1.1-1.8,2.3-1.3c1.2,0.6,0.8,1.7,0.4,2.6
		C293.4,44.9,293.3,47.7,290.1,46.3z"/>
	<path class="st2" d="M272.7,59c1.2-1.4,2.8-1.6,4.4-1.5c1.4,0.3,2.9,0.6,3.1,2.4c-0.2,0.2-0.3,0.3-0.5,0.5
		c-2.4,0.6-4.9,1.3-7.1-0.7C272.7,59.4,272.7,59.2,272.7,59z"/>
	<path class="st7" d="M278.1,47.8c-0.5-3-3.4-2.8-5.4-3.8c2.8,0.2,5.8-0.1,8.3,1.7C279.4,45.5,277.7,45.1,278.1,47.8z"/>
	<path class="st22" d="M265.9,37.2c0.3-1-0.4-2.2,0.8-3c-0.1,1.5,0.4,3.1-0.6,4.5C266,38.3,266,37.7,265.9,37.2z"/>
	<path class="st23" d="M279.8,60.3"/>
	<g>
		<polygon class="st10" points="271.6,61.1 268.3,61.1 269.2,63.9 270.7,63.9 		"/>
		<polygon class="st10" points="284.5,61.1 281.2,61.1 282.1,63.9 283.6,63.9 		"/>
		<circle class="st11" cx="269.9" cy="64.6" r="1.8"/>
		<path class="st12" d="M269.9,65.3c-0.4,0-0.7-0.3-0.7-0.7c0-0.4,0.3-0.7,0.7-0.7s0.7,0.3,0.7,0.7C270.7,65,270.3,65.3,269.9,65.3z
			"/>
		<circle class="st11" cx="282.9" cy="64.6" r="1.8"/>
		<path class="st12" d="M282.9,65.3c-0.4,0-0.7-0.3-0.7-0.7c0-0.4,0.3-0.7,0.7-0.7s0.7,0.3,0.7,0.7C283.6,65,283.3,65.3,282.9,65.3z
			"/>
		<path class="st13" d="M286,62h-19.2l-3.7-1.7c-0.5-0.2-0.7-0.8-0.5-1.3l0,0c0.2-0.5,0.8-0.7,1.3-0.5l3.3,1.5h18.4l3.3-1.5
			c0.5-0.2,1.1,0,1.3,0.5l0,0c0.2,0.5,0,1.1-0.5,1.3L286,62z"/>
	</g>
</g>
<g>
	<path class="st14" d="M334.2,26.7c1.9,0.9,1.5,2.7,1.5,4.3c0,2.6-0.1,5.2-0.1,7.9c-1.4,2.8-3.9,1.9-6.1,1.7c-2.8-1-3.3-3.4-3.2-5.9
		c0-1.3,0.3-2.4-0.8-3.3c-1-3.2,1-5.8,5.1-6.9c0.3-0.2,0.6-0.3,1-0.2C332.5,24.9,333.6,25.5,334.2,26.7z"/>
	<path class="st1" d="M328.9,39.5c2.2-0.2,4.4-0.5,6.6-0.7c1.2,1.5,3,0.7,4.5,1c4.5,1,6.5,5,9.9,7.3c0.4,2.4-1.4,3.2-3,4.2
		c-2.9-0.6-4.1-3.3-6-5.1c-1.6-1-2.9,0.6-4.4,0.4c-1.3-0.1-2.6-0.7-3.9-0.9c-0.9-0.6-2-1.1-3-1.7c-0.2-0.2-0.5-0.4-0.7-0.6
		C328.9,42.1,328,40.8,328.9,39.5z"/>
	<path class="st24" d="M329.7,44c1.1,0,2.1-0.2,3,0.6c1.1,1.1,2.7-0.1,3.9,0.8c1.5,0.1,3-0.4,4.3,0.7c-2.2-0.3-2.9,1.2-2.9,2.9
		c0,2.8-0.9,5.6-0.1,8.4c-1.4,1.6-3.3,1.5-5.1,1.4c-3.1-1.8-0.8-4.6-0.4-6.3C333.4,48.9,332.1,46.4,329.7,44z"/>
	<path class="st3" d="M331.3,24.7c-0.3-0.1-0.5-0.2-0.8-0.2c-1.5-5.5-0.3-7.8,3.9-7.4c2.8,0.2,3.9,1.7,2.9,4.5
		c-0.5,0.3-1.2,0.7-1.7,0.3c-1.1-0.6-1.1-0.7-1.2,0.7C334.4,24.2,333.1,25.1,331.3,24.7z"/>
	<path class="st4" d="M328.9,39.5c0.9,1.3,2.7,2.5,0.1,3.9c-2.2-1.2-4.6-6.7-4.1-9.2c0.2-1,0.3-1.9,0.5-2.9c1,0,1.9,0,3.3,0
		C326.6,34.4,327.1,37,328.9,39.5z"/>
	<path class="st4" d="M331.3,24.7c1.4-1,2.9-2,2.3-4.2c-0.2-0.9,0.7-1.4,1.4-1.1c2.2,0.9-0.5,0.5-0.3,1c0.5,1.3,2,0.4,2.7,1.2
		c0.9,2.9-1.6,3.8-3.2,5.2C332.7,26.8,331.4,26.5,331.3,24.7z"/>
	<path class="st2" d="M346.9,51.3c-0.4-2.4,2.2-2.7,3-4.2c0.9-0.9,1.9-2.1,3.1-0.9c1.4,1.4-0.3,2.3-1.1,2.9
		C350.5,50.2,349.7,53.3,346.9,51.3z"/>
	<path class="st2" d="M332.7,58.9c1.4-1.5,3.3-1.4,5.1-1.4c1.1,0.5,2.3,0.9,2.4,2.4c-0.2,0.2-0.3,0.3-0.5,0.5
		c-2.4,0.6-4.9,1.3-7.1-0.7C332.7,59.4,332.7,59.2,332.7,58.9z"/>
	<path class="st7" d="M336.6,45.5c-1.3-0.2-2.8,0.4-3.9-0.8C334,44.9,335.5,44.4,336.6,45.5z"/>
	<g>
		<polygon class="st10" points="331.7,60.6 328.4,60.6 329.3,63.4 330.8,63.4 		"/>
		<polygon class="st10" points="344.6,60.6 341.3,60.6 342.2,63.4 343.7,63.4 		"/>
		<circle class="st11" cx="330.1" cy="64.1" r="1.8"/>
		<path class="st12" d="M330.1,64.8c-0.4,0-0.7-0.3-0.7-0.7c0-0.4,0.3-0.7,0.7-0.7s0.7,0.3,0.7,0.7
			C330.8,64.5,330.5,64.8,330.1,64.8z"/>
		<circle class="st11" cx="343" cy="64.1" r="1.8"/>
		<path class="st12" d="M343,64.8c-0.4,0-0.7-0.3-0.7-0.7c0-0.4,0.3-0.7,0.7-0.7s0.7,0.3,0.7,0.7C343.7,64.5,343.4,64.8,343,64.8z"
			/>
		<path class="st13" d="M346.1,61.5h-19.2l-3.7-1.7c-0.5-0.2-0.7-0.8-0.5-1.3l0,0c0.2-0.5,0.8-0.7,1.3-0.5l3.3,1.5h18.4L349,58
			c0.5-0.2,1.1,0,1.3,0.5l0,0c0.2,0.5,0,1.1-0.5,1.3L346.1,61.5z"/>
	</g>
</g>
<g>
	<path class="st25" d="M393.5,58.9c-1.4-0.6-1.6-1.6-1-3c0.6-1.6,0.6-3.4,1.2-5c1.2-3.1-0.2-4.9-2.7-6.3c-1.8-1-3.9-1.8-4.2-4.3
		c2-3.3,5.1-1.5,7.7-1.7c0.8,0.3,1.5,0.8,1.8,1.7c4.7,2.9,7.9,7.2,11.3,11.4c0.5,2.9-1.3,3.7-3.7,4.1c-1.2,0.3-1.6-0.9-2.5-1.2
		c-0.9-0.4-0.7-2.5-2.1-1.7c-1,0.6-1.4,1.9-0.8,3.2c0.2,0.4,0.1,1,0.1,1.4C397.2,59.1,395.4,59,393.5,58.9z"/>
	<path class="st26" d="M395.1,39.4c-2.8,0.1-5.6-0.5-8.2,0.9c-2.8-1.4-0.3-3.6-0.7-5.3c1.4-0.8,2.6-0.1,3.2,0.3
		c-1.5-0.7-1.1-3.3-2.5-4.7c-1-3.5,0.8-5.7,5-6c0.5-0.1,1,0,1.5,0.3c0.7,0.6,1.5,1,1.6,2c1.4,3.4,0.5,7,0.6,10.5
		C395.1,37.9,395.7,38.8,395.1,39.4z"/>
	<path class="st27" d="M392.8,25.4c-0.3-0.3-0.6-0.5-0.8-0.8c-0.7-1.4-0.8-3-0.6-4.5c1-0.5,2.2-0.8,2.3-2.3c5-0.1,5.9,0.6,5.3,4.4
		c-1.4,0.8-2.5,0.4-3-0.5C396.4,23.8,396.2,25.7,392.8,25.4z"/>
	<path class="st4" d="M386.9,30.5c1.1,0.2,3-0.8,2.4,1.9c-0.3,1.8,1.6,2.3,2.9,3c0.8,0.5,1.6,1,0.9,2c-0.5,0.7-1.4,0.6-2.1,0.2
		c-1.6-0.9-3.2-1.8-4.8-2.7C385.5,33.3,387,32.1,386.9,30.5z"/>
	<path class="st4" d="M392.8,25.4c1.5-1,2.9-2,2.3-4.2c-0.2-0.9,0.7-1.4,1.4-1.1c2.2,0.9-0.5,0.5-0.3,1c0.5,1.3,2,0.4,2.7,1.2
		c0.4,3-1,4.4-3.9,4.6C394.1,26.6,392.8,26.9,392.8,25.4z"/>
	<path class="st2" d="M404,55.8c1.2-1.4,2.4-2.8,3.7-4.1c0.8-0.4,1.7-1.2,2.6-0.1c0.8,1.1-0.2,1.8-0.9,2.4
		C407.8,55.4,406.7,58,404,55.8z"/>
	<path class="st2" d="M393.5,58.9c1.4-1.5,3.3-1.4,5.1-1.4c1.1,0.5,2.3,0.9,2.4,2.4c-0.2,0.2-0.3,0.3-0.5,0.5
		c-2.4,0.6-4.9,1.3-7.1-0.7C393.5,59.4,393.5,59.2,393.5,58.9z"/>
	<path class="st28" d="M393.6,17.8c0.6,0.3,1.2,0.7,1.9,1c-1.8-0.9-1.8,3.8-4.1,1.3C391.7,19,392.5,18.2,393.6,17.8z"/>
	<path class="st4" d="M395.1,39.4c0.1-0.7-0.1-1.5,0.6-2.1c-0.1,1.1,1.2,1.8,0.7,3C395.9,40,395.5,39.7,395.1,39.4z"/>
	<g>
		<polygon class="st10" points="394.7,60.4 391.3,60.4 392.2,63.3 393.8,63.3 		"/>
		<polygon class="st10" points="407.6,60.4 404.3,60.4 405.2,63.3 406.7,63.3 		"/>
		<circle class="st11" cx="393" cy="64" r="1.8"/>
		<path class="st12" d="M393,64.7c-0.4,0-0.7-0.3-0.7-0.7c0-0.4,0.3-0.7,0.7-0.7c0.4,0,0.7,0.3,0.7,0.7
			C393.7,64.4,393.4,64.7,393,64.7z"/>
		<circle class="st11" cx="405.9" cy="64" r="1.8"/>
		<path class="st12" d="M405.9,64.7c-0.4,0-0.7-0.3-0.7-0.7c0-0.4,0.3-0.7,0.7-0.7s0.7,0.3,0.7,0.7
			C406.7,64.4,406.3,64.7,405.9,64.7z"/>
		<path class="st13" d="M409.1,61.4h-19.2l-3.7-1.7c-0.5-0.2-0.7-0.8-0.5-1.3l0,0c0.2-0.5,0.8-0.7,1.3-0.5l3.3,1.5h18.4l3.3-1.5
			c0.5-0.2,1.1,0,1.3,0.5l0,0c0.2,0.5,0,1.1-0.5,1.3L409.1,61.4z"/>
	</g>
</g>
<g>
	<path class="st16" d="M459.3,46.3c1.6,3.9,0.4,8,1,12c0.8,2-0.7,2.3-2.1,2.5c-1,0.1-1.9-0.5-2.9-0.4c-0.4-0.1-0.7-0.4-0.9-0.7
		c-0.3-0.5-0.6-1-0.9-1.5c0-0.7,0-1.5,0-2.2c2.1-5.1-0.6-8.6-3.9-11.9c-1.1-1.1-1.9-2.3-2-3.8c2-3.2,4.8-2.5,7.7-1.7
		C457.1,40.9,458.9,43.2,459.3,46.3z"/>
	<path class="st14" d="M447.5,30.4c-0.5-2.8,1.6-5.1,5.2-5.8c0.5-0.1,1,0,1.5,0.3c0.7,0.6,1.5,1,1.6,2c1.1,1.9,0.6,3.9,0.6,5.9
		C453.1,33.2,449.6,34.4,447.5,30.4z"/>
	<path class="st29" d="M455.7,39.6c-2.7-0.4-5.5-0.6-8.1,0.6c-3.1-1.7,0.1-4.1-0.7-6.1c2.9-1.9,6.7-1.6,9.4,0.8c0,0.8,0,1.6,0,2.3
		C455.8,38,456.6,39.1,455.7,39.6z"/>
	<path class="st3" d="M453.5,25.4c-0.3-0.3-0.6-0.5-0.8-0.8c-1.4-4.9-0.1-7.1,4-6.8c2.9,0.2,3.9,1.7,3,4.5c-1.4,0.8-2.5,0.6-3.1-0.7
		C457.2,23.9,456.8,25.7,453.5,25.4z"/>
	<path class="st4" d="M456.4,35c-3.1-0.7-6.3-0.7-9.4-0.8c-1.6-1.5-0.5-2.6,0.6-3.8c2.7,1.6,6,1.1,8.9,2.4
		C456.3,33.5,456.3,34.2,456.4,35z"/>
	<path class="st4" d="M453.5,25.4c1.5-1,2.9-2,2.3-4.2c-0.2-1,0.7-1.4,1.4-1.1c2.2,0.9-0.5,0.5-0.3,1c0.5,1.3,2,0.4,2.7,1.2
		c0.4,3-1,4.4-3.9,4.6C454.8,26.6,453.6,26.9,453.5,25.4z"/>
	<path class="st2" d="M454.9,59.8c1.5-1.7,4.3,1.6,5.4-1.5c1,0,1.4,0.6,1.5,1.5c0.8,0.9,0.9,1.9,0.2,2.9c-2.7,0.7-5.4,1.1-7.3-1.7
		C454.6,60.6,454.7,60.2,454.9,59.8z"/>
	<path class="st4" d="M455.7,39.6c0.2-0.8-0.1-1.7,0.7-2.3c0.8,2.3,1.2,4.8,3.2,6.5c1.2,1,0.1,1.7-0.3,2.6
		C458.1,44.1,456.9,41.9,455.7,39.6z"/>
	<path class="st30" d="M453.5,56c0.8,0.7,0.8,1.5,0,2.2C452.6,57.5,452.6,56.8,453.5,56z"/>
	<g>
		<polygon class="st10" points="451.8,62.7 448.5,62.7 449.4,65.5 450.9,65.5 		"/>
		<polygon class="st10" points="464.7,62.7 461.4,62.7 462.3,65.5 463.8,65.5 		"/>
		<circle class="st11" cx="450.1" cy="66.2" r="1.8"/>
		<path class="st12" d="M450.1,66.9c-0.4,0-0.7-0.3-0.7-0.7c0-0.4,0.3-0.7,0.7-0.7s0.7,0.3,0.7,0.7
			C450.9,66.6,450.5,66.9,450.1,66.9z"/>
		<circle class="st11" cx="463.1" cy="66.2" r="1.8"/>
		<path class="st12" d="M463.1,66.9c-0.4,0-0.7-0.3-0.7-0.7c0-0.4,0.3-0.7,0.7-0.7c0.4,0,0.7,0.3,0.7,0.7
			C463.8,66.6,463.5,66.9,463.1,66.9z"/>
		<path class="st13" d="M466.2,63.6H447l-3.7-1.7c-0.5-0.2-0.7-0.8-0.5-1.3l0,0c0.2-0.5,0.8-0.7,1.3-0.5l3.3,1.5h18.4l3.3-1.5
			c0.5-0.2,1.1,0,1.3,0.5l0,0c0.2,0.5,0,1.1-0.5,1.3L466.2,63.6z"/>
	</g>
</g>
<g>
	<path class="st14" d="M575.7,40.4c-2.3,1.1-4.8,0.4-7.3,0.5c-2.6-2.4-0.9-5-0.2-7.5c3-2,6.5-1.6,8.3,0.8c0.4,1,0.8,1.9,0.5,3
		c-0.6,0.9,0.5,2.1-0.4,3C576.4,40.5,576.1,40.6,575.7,40.4z"/>
	<path class="st31" d="M573.4,54.5c1-1.1,1.3-2.5,1.6-3.9c0.9-1.6-0.3-3.6,0.7-5.2l0,0.1c1-0.9-0.6-3.1,1.8-3.3
		c1.6,1.3,2.5,2.8,1.3,4.8c0.5,3.3,1.4,6.5-0.2,9.7c-0.2,0.4-0.5,0.7-0.9,0.9c-1.2,0.3-2.5,0.4-3.6-0.3
		C573.4,56.5,572.8,55.7,573.4,54.5z"/>
	<path class="st14" d="M568.2,29.8c0.1-3.1,1.9-4.4,6-4.5c0.5-0.1,1,0,1.5,0.3c0.7,0.6,1.5,1,1.6,2c0.8,1.4,2.5,2.7,0.7,4.5
		c-1.7,0.7-3.5,0.3-5.3,0.2C571.1,31.7,569.5,30.9,568.2,29.8z"/>
	<path class="st27" d="M575,26.1c-0.3-0.3-0.6-0.5-0.8-0.8c-0.7-1.4-0.8-3-0.6-4.5c1-0.5,2.2-0.8,2.3-2.3c5-0.1,5.9,0.6,5.3,4.4
		c-1.4,0.8-2.5,0.5-3-0.5C578.7,24.6,578.4,26.5,575,26.1z"/>
	<path class="st4" d="M572.7,31.1c1.8,0.3,3.7-0.3,5.3,0.9c-0.1,1,0.3,2.3-1.4,2.2c-2.7-1.2-5.5-0.6-8.3-0.8c-0.5-1-1.5-2-0.1-3
		C569.8,30.1,571.4,29.6,572.7,31.1z"/>
	<path class="st4" d="M575,26.1c1.5-1,2.9-2,2.3-4.2c-0.2-0.9,0.7-1.4,1.4-1.1c2.2,0.9-0.5,0.5-0.3,1c0.5,1.3,2,0.4,2.7,1.2
		c0.4,3-1,4.4-3.9,4.6C576.3,27.4,575.1,27.6,575,26.1z"/>
	<path class="st2" d="M578.1,56.8c0.2,0,0.4,0,0.6,0c1.6,0.7,3.1,1.4,3.9,3.1c-0.2,0.2-0.3,0.3-0.5,0.5c-3.2,0.5-6.5,1.5-9.5-0.7
		c0.1-0.7,0.1-1.4,0.2-2.1c0.4-0.5,0.9-0.7,1.5-0.5C575.5,57,576.8,57.5,578.1,56.8z"/>
	<path class="st4" d="M578.8,47c-0.2-1.6-0.6-3.1-1.5-4.5c-0.8-0.5-1.1-1.2-0.9-2.2c0.2-1-0.2-2.2,0.7-3c0.9,2.2,1.8,4.4,2.7,6.7
		C580.6,46,580.4,46.6,578.8,47z"/>
	<path class="st28" d="M575.8,18.6c0.6,0.3,1.2,0.7,1.9,1c-1.8-0.9-1.8,3.8-4.1,1.3C574,19.7,574.7,19,575.8,18.6z"/>
	<path class="st32" d="M572.7,31.1c-1.4-0.8-3-0.6-4.5-0.7c0-0.2,0-0.4,0-0.6C569.7,30.1,571.7,28.9,572.7,31.1z"/>
	<path class="st7" d="M576.4,40.3c0.3,0.7,0.6,1.4,0.9,2.2c-1.2,0.7-0.6,2.3-1.6,3c0-1.7,0-3.4,0-5.2
		C575.9,40.3,576.2,40.3,576.4,40.3z"/>
	<path class="st7" d="M575.8,45.5c-0.3,1.7,0.6,3.6-0.7,5.2C575.2,48.9,574.4,47.1,575.8,45.5z"/>
	<path class="st7" d="M574.2,57.4c-0.5,0.1-1,0.1-1.5,0.2c0.1-1-0.2-2.2,0.7-3c0.3,0.7,0.5,1.5,0.8,2.2
		C574.8,57,574.8,57.2,574.2,57.4z"/>
	<path class="st7" d="M574.2,57.4c0-0.2,0-0.4,0-0.7c1.3,0,2.6,0,3.8,0C577,57.9,575.6,57.4,574.2,57.4z"/>
	<g>
		<polygon class="st10" points="569.8,60.4 566.5,60.4 567.4,63.3 568.9,63.3 		"/>
		<polygon class="st10" points="582.7,60.4 579.4,60.4 580.3,63.3 581.9,63.3 		"/>
		<circle class="st11" cx="568.2" cy="64" r="1.8"/>
		<path class="st12" d="M568.2,64.7c-0.4,0-0.7-0.3-0.7-0.7c0-0.4,0.3-0.7,0.7-0.7c0.4,0,0.7,0.3,0.7,0.7
			C568.9,64.4,568.6,64.7,568.2,64.7z"/>
		<circle class="st11" cx="581.1" cy="64" r="1.8"/>
		<path class="st12" d="M581.1,64.7c-0.4,0-0.7-0.3-0.7-0.7c0-0.4,0.3-0.7,0.7-0.7s0.7,0.3,0.7,0.7
			C581.8,64.4,581.5,64.7,581.1,64.7z"/>
		<path class="st13" d="M584.2,61.3H565l-3.7-1.7c-0.5-0.2-0.7-0.8-0.5-1.3l0,0c0.2-0.5,0.8-0.7,1.3-0.5l3.3,1.5h18.4l3.3-1.5
			c0.5-0.2,1.1,0,1.3,0.5l0,0c0.2,0.5,0,1.1-0.5,1.3L584.2,61.3z"/>
	</g>
	<path class="st2" d="M566.9,57.4c1.9,0.5,3.1,2.3,5.2,2.3c0.3,0.3,0.5,0.6,0.8,0.8c1,2.4-0.5,2.5-2.2,2.5c-1.7-0.1-2.8-0.9-3.2-2.5
		c-0.3-0.1-0.5-0.1-0.8-0.2c-0.4-0.4-0.7-0.9-0.7-1.5C566.3,58.4,566.6,57.9,566.9,57.4z"/>
	<path class="st25" d="M566.9,57.4c3.3-5.2,2.6-10.9,1.5-16.5c2.2-2.2,4.8-1.6,7.3-1c1.5,1.3,0.9,3.1,1.1,4.7c0,0.4,0,0.8,0,1.2
		c-0.2,1.7-1,3.2-0.6,5c0,1.5-0.6,2.9-1.3,4.2c-0.6,0.9-1.2,1.8-1.1,2.9c0.1,0.8-0.2,1.5-0.7,2.1c-0.3,0.3-0.6,0.5-1,0.6
		C569.5,60.9,567.9,59.7,566.9,57.4z"/>
</g>
<g>
	<path class="st16" d="M512.2,58.2c-0.2-1,0.2-1.9,0.5-2.8c1.6-4.4-0.1-8.1-2.7-11.5c-0.8-1.1-1.6-2.2-1.7-3.6
		c2.1-3.2,4.9-2.6,7.9-1.6c2.2,2.6,3.6,5.5,3.4,9.1c-0.1,3.2-1.4,6.5-0.2,9.7c-0.3,1.1-1.2,1.7-2,2.5
		C515.1,61,513.3,60.5,512.2,58.2z"/>
	<path class="st33" d="M516.4,39.6c-2.7-0.4-5.5-0.6-8.1,0.6c-2.8-2.3-0.4-4.6-0.1-6.8c3-2,6.5-1.6,8.3,0.9c0.4,1,0.8,1.9,0.5,3
		C516.6,38,517.4,39.1,516.4,39.6z"/>
	<path class="st14" d="M517.3,27.6c0.8,1.4,2.5,2.7,0.7,4.5c-1.7,0.7-3.5,0.3-5.3,0.2c-1.6-0.6-3.2-1.3-4.5-2.5
		c0.1-3.1,1.9-4.4,6-4.5c0.5-0.1,1,0,1.5,0.3C516.3,26.2,517.2,26.6,517.3,27.6z"/>
	<path class="st27" d="M515,26.1c-0.3-0.3-0.6-0.5-0.8-0.8c-0.7-1.4-0.8-3-0.6-4.5c1-0.5,2.2-0.8,2.3-2.3c5-0.1,5.9,0.6,5.3,4.4
		c-1.4,0.8-2.5,0.5-3-0.5C518.7,24.6,518.4,26.5,515,26.1z"/>
	<path class="st4" d="M512.7,31.1c1.8,0.3,3.7-0.3,5.3,0.9c0,1,0.3,2.3-1.4,2.2c-2.7-1.2-5.5-0.6-8.3-0.9c-0.5-1-1.5-2-0.1-3
		C509.8,30.1,511.4,29.6,512.7,31.1z"/>
	<path class="st4" d="M515,26.1c1.5-1,2.9-2,2.3-4.2c-0.2-0.9,0.7-1.4,1.4-1.1c2.2,0.9-0.5,0.5-0.3,1c0.5,1.3,2,0.4,2.7,1.2
		c0.4,3-1,4.4-3.9,4.6C516.3,27.4,515.1,27.6,515,26.1z"/>
	<path class="st4" d="M516.4,39.6c0.2-0.8-0.1-1.7,0.7-2.3c0.9,2.1,1.6,4.3,2.6,6.4c0.6,1.4,1,2.7-0.1,4
		C518.4,45.1,518.3,42,516.4,39.6z"/>
	<path class="st2" d="M517.3,59.8c0-0.3,0-0.6-0.1-0.9c0.1-1.4,1.1-1.5,2.2-1.5c1.1,0.8,3,0.4,3.2,2.4c0,0,0-0.1,0-0.1
		C520.8,61,519,60.9,517.3,59.8z"/>
	<path class="st28" d="M515.8,18.6c0.6,0.3,1.2,0.7,1.9,1c-1.8-0.9-1.8,3.8-4.1,1.3C514,19.7,514.7,19,515.8,18.6z"/>
	<path class="st32" d="M512.7,31.1c-1.4-0.8-3-0.6-4.5-0.7c0-0.2,0-0.4,0-0.6C509.7,30.1,511.7,28.9,512.7,31.1z"/>
	<g>
		<polygon class="st10" points="511.6,60.8 508.3,60.8 509.2,63.6 510.7,63.6 		"/>
		<polygon class="st10" points="524.5,60.8 521.2,60.8 522.1,63.6 523.6,63.6 		"/>
		<circle class="st11" cx="510" cy="64.4" r="1.8"/>
		<path class="st12" d="M510,65.1c-0.4,0-0.7-0.3-0.7-0.7c0-0.4,0.3-0.7,0.7-0.7s0.7,0.3,0.7,0.7C510.7,64.8,510.4,65.1,510,65.1z"
			/>
		<circle class="st11" cx="522.9" cy="64.4" r="1.8"/>
		<path class="st12" d="M522.9,65.1c-0.4,0-0.7-0.3-0.7-0.7c0-0.4,0.3-0.7,0.7-0.7s0.7,0.3,0.7,0.7
			C523.6,64.8,523.3,65.1,522.9,65.1z"/>
		<path class="st13" d="M526,61.7h-19.2l-3.7-1.7c-0.5-0.2-0.7-0.8-0.5-1.3l0,0c0.2-0.5,0.8-0.7,1.3-0.5l3.3,1.5h18.4l3.3-1.5
			c0.5-0.2,1.1,0,1.3,0.5l0,0c0.2,0.5,0,1.1-0.5,1.3L526,61.7z"/>
	</g>
	<path class="st2" d="M512.2,58.2c1.7,0.1,3.1,2.4,5,0.7c0.3,0,0.6,0.1,0.9,0.3c0.4,0.3,0.7,0.7,1,1.1c0.7,1,1.5,1.9,0.4,3.1
		c-1.8,0-3.5,0-5.3,0c-1.2-0.6-2.6-1-3.5-2.1c-0.3-0.4-0.5-0.9-0.2-1.5C511,59.3,511.6,58.7,512.2,58.2z"/>
</g>
<g>
	<path class="st19" d="M634.3,46.9c-1.4,4.1-5.3,5.3-8.4,7.5c-0.9,0.6-1.9,1.1-2.9,1.7c-3.4-0.2-3.8-2.8-4.3-5.4
		c0.6-1.8,2.4-1.8,3.7-2c4.6-0.8,6.6-4.1,8.4-7.8c2.6-0.4,5.1-0.3,7.4,1.2C638.6,45.6,638,46.3,634.3,46.9z"/>
	<path class="st21" d="M634.3,46.9c1.4-1.4,3.5-2.2,3.6-4.6c0.1-0.7,0.5-0.9,1.2-0.8c1.9,1.4,2.4,3.3,1.8,5.5c0.9,3.2,1.4,6.4,0,9.6
		c-1.1,2.4-3,2.1-5.1,1.4c-1-1.3-1.1-3-0.6-4.3C636.2,51.3,635.5,49.1,634.3,46.9z"/>
	<path class="st26" d="M638.7,41.9c-0.2,0.2-0.5,0.3-0.7,0.5c-2.4-0.3-5.2,0.8-7.2-1.4c-0.9-2.6-0.2-5.1,0.6-7.5
		c3-2,6.5-1.6,8.3,0.8c0.3,1,1.3,2.1-0.1,3C638.6,38.7,640.5,40.7,638.7,41.9z"/>
	<path class="st14" d="M631.2,29.8c0.1-3.1,1.9-4.4,6-4.5c0.5-0.1,1,0,1.5,0.3c0.7,0.6,1.5,1,1.6,2c0.8,1.4,2.5,2.7,0.7,4.5
		c-1.7,0.7-3.5,0.3-5.3,0.2C634.1,31.7,632.5,30.9,631.2,29.8z"/>
	<path class="st3" d="M638,26.1c-0.3-0.3-0.6-0.5-0.8-0.8c-1.4-4.9-0.1-7.1,4-6.8c2.9,0.2,3.9,1.7,3,4.5c-1.4,0.8-2.5,0.5-3.1-0.7
		C641.7,24.7,641.3,26.4,638,26.1z"/>
	<path class="st2" d="M618.7,50.7c2,1.3,2.6,3.8,4.3,5.4c-0.1,1.1,1.4,2.5-0.3,3.2c-1.5,0.6-2.2-0.9-2.9-1.7
		C618.2,55.6,615.8,53.5,618.7,50.7z"/>
	<path class="st4" d="M635.7,31.1c1.8,0.3,3.7-0.3,5.3,0.9c-0.1,1,0.3,2.3-1.4,2.2c-2.7-1.2-5.5-0.6-8.3-0.8c-0.5-1-1.5-2-0.1-3
		C632.8,30.1,634.4,29.6,635.7,31.1z"/>
	<path class="st4" d="M638,26.1c1.5-1,2.9-2,2.3-4.2c-0.2-1,0.7-1.4,1.4-1.1c2.2,0.9-0.5,0.5-0.3,1c0.5,1.3,2,0.4,2.7,1.2
		c0.4,3-1,4.4-3.9,4.6C639.3,27.4,638.1,27.6,638,26.1z"/>
	<path class="st2" d="M635.8,58.2c1.7-0.5,3.4-1,5.1-1.4c1.6,0.7,3.1,1.4,3.9,3.1c-0.2,0.2-0.3,0.3-0.5,0.5
		c-2.9,0.6-5.9,1.4-8.6-0.7C635.8,59.2,635.8,58.7,635.8,58.2z"/>
	<path class="st4" d="M638.7,41.9c0.3-1.5-0.5-3.3,0.8-4.6c1,2.6,2,5.2,2.8,7.8c0.3,1,0.8,2.6-1.4,2
		C639.8,45.6,640.1,43.4,638.7,41.9z"/>
	<path class="st32" d="M635.7,31.1c-1.4-0.8-3-0.6-4.5-0.7c0-0.2,0-0.4,0-0.6C632.7,30.1,634.7,28.9,635.7,31.1z"/>
	<g>
		<polygon class="st10" points="635.5,60.8 632.1,60.8 633,63.6 634.6,63.6 		"/>
		<polygon class="st10" points="648.4,60.8 645.1,60.8 646,63.6 647.5,63.6 		"/>
		<circle class="st11" cx="633.8" cy="64.4" r="1.8"/>
		<path class="st12" d="M633.8,65.1c-0.4,0-0.7-0.3-0.7-0.7c0-0.4,0.3-0.7,0.7-0.7s0.7,0.3,0.7,0.7
			C634.5,64.8,634.2,65.1,633.8,65.1z"/>
		<circle class="st11" cx="646.7" cy="64.4" r="1.8"/>
		<path class="st12" d="M646.7,65.1c-0.4,0-0.7-0.3-0.7-0.7c0-0.4,0.3-0.7,0.7-0.7c0.4,0,0.7,0.3,0.7,0.7
			C647.5,64.8,647.1,65.1,646.7,65.1z"/>
		<path class="st13" d="M649.9,61.7h-19.2l-3.7-1.7c-0.5-0.2-0.7-0.8-0.5-1.3l0,0c0.2-0.5,0.8-0.7,1.3-0.5l3.3,1.5h18.4l3.3-1.5
			c0.5-0.2,1.1,0,1.3,0.5l0,0c0.2,0.5,0,1.1-0.5,1.3L649.9,61.7z"/>
	</g>
</g>
<g>
	<path class="st1" d="M695,46.9c-2.3,4.7-6.9,7.2-10.6,10.4c-2.8,0.2-2.8-1.7-2.8-3.7c-0.1-2.1,1.6-3.2,3-3.9
		c3.6-2.1,4.8-5.7,6.8-8.8c2.6-0.4,5.1-0.3,7.4,1.2C699.3,45.6,698.8,46.3,695,46.9z"/>
	<path class="st21" d="M695,46.9c1.4-1.4,3.5-2.2,3.6-4.6c0.1-0.7,0.5-0.9,1.2-0.8c1.9,1.4,2.4,3.3,1.8,5.5c0.9,3.2,1.4,6.4,0,9.6
		c-1.1,2.4-3,2.1-5.1,1.4c-1-1.3-1.1-3-0.6-4.3C697,51.3,696.3,49.1,695,46.9z"/>
	<path class="st14" d="M701,27.6c3,3.5-0.1,6.5-0.8,9.7c-0.3,0.4-0.5,0.9-1.1,1c-0.4,0-0.7-0.2-0.9-0.5c-0.8-3.6-4.7-4.5-6.3-7.4
		c-0.5-3.3,1.5-5.1,5.9-5.1c0.5-0.1,1,0,1.5,0.3C700.1,26.2,700.9,26.6,701,27.6z"/>
	<path class="st29" d="M698.7,38c0.2,0,0.5,0,0.7,0c1,1.3,1.3,2.6,0,3.9c-0.2,0.2-0.5,0.3-0.7,0.5c-2.5-0.3-5.2,0.8-7.2-1.4
		c-0.9-2.6-0.3-5.1,0.6-7.5C696.1,32.2,696.7,36.1,698.7,38z"/>
	<path class="st3" d="M698.7,26.1c-0.3-0.3-0.6-0.5-0.8-0.8c-1.4-4.9-0.1-7.1,4-6.8c2.9,0.2,3.9,1.7,3,4.5c-1.4,0.8-2.5,0.4-3-0.4
		C702.4,24.6,702.1,26.5,698.7,26.1z"/>
	<path class="st4" d="M698.7,38c-1.8,0.2-2.5-0.9-3.3-2.3c-0.6-1-2.2-1.5-3.4-2.2c-0.5-1-1.5-2-0.1-3C695.9,31.4,699,34.9,698.7,38z
		"/>
	<path class="st4" d="M698.7,26.1c1.5-1,2.9-2,2.3-4.2c-0.2-1,0.7-1.4,1.4-1.1c2.2,0.9-0.5,0.5-0.3,1c0.5,1.3,2,0.4,2.7,1.2
		c0.4,3-1,4.4-3.9,4.6C700.1,27.4,698.9,27.6,698.7,26.1z"/>
	<path class="st2" d="M681.7,53.7c0.9,1.2,1.4,2.8,2.8,3.7c0.2,1,1.4,2.1-0.1,2.9c-1.3,0.6-2.4-0.2-3.1-1.3
		C680.1,57.2,679.8,55.3,681.7,53.7z"/>
	<path class="st2" d="M696.6,58.2c1.7-0.5,3.4-1,5.1-1.4c1.6,0.7,3.1,1.4,3.9,3.1c-0.2,0.2-0.3,0.3-0.5,0.5
		c-2.9,0.6-5.9,1.4-8.6-0.7C696.5,59.2,696.5,58.7,696.6,58.2z"/>
	<path class="st4" d="M699.4,41.9c0-1.3,0-2.6,0-3.9c0.3-0.2,0.6-0.5,0.9-0.7c1,2.6,2,5.2,2.8,7.8c0.3,1,0.8,2.6-1.4,2
		C700.5,45.6,700.8,43.4,699.4,41.9z"/>
	<g>
		<polygon class="st10" points="696.5,60.9 693.2,60.9 694.1,63.7 695.6,63.7 		"/>
		<polygon class="st10" points="709.4,60.9 706.1,60.9 707,63.7 708.5,63.7 		"/>
		<circle class="st11" cx="694.8" cy="64.4" r="1.8"/>
		<path class="st12" d="M694.8,65.2c-0.4,0-0.7-0.3-0.7-0.7c0-0.4,0.3-0.7,0.7-0.7s0.7,0.3,0.7,0.7
			C695.5,64.8,695.2,65.2,694.8,65.2z"/>
		<circle class="st11" cx="707.7" cy="64.4" r="1.8"/>
		<path class="st12" d="M707.7,65.2c-0.4,0-0.7-0.3-0.7-0.7c0-0.4,0.3-0.7,0.7-0.7s0.7,0.3,0.7,0.7
			C708.5,64.8,708.1,65.2,707.7,65.2z"/>
		<path class="st13" d="M710.9,61.8h-19.2l-3.7-1.7c-0.5-0.2-0.7-0.8-0.5-1.3l0,0c0.2-0.5,0.8-0.7,1.3-0.5l3.3,1.5h18.4l3.3-1.5
			c0.5-0.2,1.1,0,1.3,0.5l0,0c0.2,0.5,0,1.1-0.5,1.3L710.9,61.8z"/>
	</g>
</g>
<g>
	<path class="st0" d="M752.1,31.3c0.1-4.2,2-5.9,6.5-5.9c0.5-0.1,1,0,1.5,0.3c0.7,0.6,1.5,1,1.6,2c3,3.5,0.5,6.6-0.8,9.7
		c-0.7,1.5,0.5,3-0.1,4.5c-0.3,0.6-0.7,1-1.2,1.4c-0.4,0.2-0.8,0.3-1.2,0.4c-2.8,0.7-5.2,0.6-6.3-2.7c-1.1-2.2,0.3-4.5,0-6.7
		c0.6-0.2,1.4,0.5,1.6,0.3c0.4-0.5-0.2-1-0.4-1.6C753.2,32.3,752.8,31.7,752.1,31.3z"/>
	<path class="st1" d="M752.2,40.9c1.8,2.2,4.4,1.1,6.6,1.6c1.3,1.2,1.1,2.8,1.1,4.4c0,0.4,0,0.8-0.1,1.1c-0.6,1.8-1.5,3.4-2.3,5
		c-0.2,0.3-0.4,0.6-0.7,0.8c-2.4,1.5-4.5,3.7-7.7,3.5c-2-0.7-2.8-2.2-2.9-4.3c0.2-0.3,0.3-0.8,0.6-0.9
		C752,50.1,753.8,46.3,752.2,40.9z"/>
	<path class="st24" d="M759.4,42.3c0.2-0.1,0.5-0.3,0.7-0.4c2.7,0.9,2.7,3,2.3,5.2c0.9,3.2,1.4,6.4,0,9.6c-1.3,2.5-3.5,2.2-5.7,1.7
		c-1.9-1.8-1.8-3.6-0.2-5.4l0,0c1.6-1.4,1.6-3.5,2.2-5.2l0,0C759.7,46.1,758.6,44.1,759.4,42.3z"/>
	<path class="st27" d="M759.5,26.1c-0.3-0.3-0.6-0.5-0.8-0.8c-0.7-1.4-0.8-3-0.6-4.5c1-0.5,2.2-0.8,2.3-2.3c5-0.1,5.9,0.6,5.3,4.4
		c-0.5,0.3-1.2,0.7-1.7,0.3c-1.3-0.8-1-0.3-1.2,0.8C762.5,25.7,761.3,26.6,759.5,26.1z"/>
	<path class="st4" d="M759.5,26.1c1.5-1,2.9-2,2.3-4.2c-0.2-0.9,0.7-1.4,1.4-1.1c2.2,0.9-0.5,0.5-0.3,1c0.5,1.3,2,0.4,2.7,1.2
		c0.4,3-1,4.4-3.9,4.6C760.8,27.4,759.6,27.6,759.5,26.1z"/>
	<path class="st4" d="M752.1,31.3c1.3-0.2,4.2-3,2.7,1.6c-0.1,0.3,0.1,0.7,0.3,1c0.8,0.9,2.9,1.6,0.6,2.9c-1.9,1-2.7-0.3-3-2
		c0-0.2-0.3-0.4-0.5-0.5C751.1,33.3,751.2,32.3,752.1,31.3z"/>
	<path class="st2" d="M757.2,59.7c0-0.5,0.1-1,0.1-1.5c1.7-0.5,3.4-1,5.1-1.4c1.6,0.7,3.1,1.4,3.9,3.1c-0.2,0.2-0.3,0.3-0.5,0.5
		C762.9,60.9,759.9,61.7,757.2,59.7z"/>
	<path class="st4" d="M762.4,47.2c-1.1-1.6-0.8-3.8-2.3-5.2c0.3-1.5-0.5-3.2,0.8-4.6c1,2.6,2,5.2,2.8,7.8
		C764.1,46.1,764.6,47.7,762.4,47.2z"/>
	<path class="st28" d="M760.3,18.6c0.6,0.3,1.2,0.7,1.9,1c-1.8-0.9-1.8,3.8-4.1,1.3C758.5,19.7,759.2,19,760.3,18.6z"/>
	<path class="st7" d="M759.4,42.3c-0.1,1.8,0.6,3.8-0.7,5.5c0-1.8,0-3.5,0-5.3C759,42.4,759.2,42.3,759.4,42.3z"/>
	<path class="st7" d="M758.8,47.7c-0.2,2,0.5,4.3-2.2,5.2C756.9,51.1,757.8,49.4,758.8,47.7z"/>
	<g>
		<polygon class="st10" points="756.5,61 753.2,61 754.1,63.8 755.6,63.8 		"/>
		<polygon class="st10" points="769.4,61 766.1,61 767,63.8 768.5,63.8 		"/>
		<circle class="st11" cx="754.8" cy="64.5" r="1.8"/>
		<path class="st12" d="M754.8,65.2c-0.4,0-0.7-0.3-0.7-0.7c0-0.4,0.3-0.7,0.7-0.7s0.7,0.3,0.7,0.7
			C755.5,64.9,755.2,65.2,754.8,65.2z"/>
		<circle class="st11" cx="767.7" cy="64.5" r="1.8"/>
		<path class="st12" d="M767.7,65.2c-0.4,0-0.7-0.3-0.7-0.7c0-0.4,0.3-0.7,0.7-0.7c0.4,0,0.7,0.3,0.7,0.7
			C768.5,64.9,768.1,65.2,767.7,65.2z"/>
		<path class="st13" d="M770.9,61.9h-19.2l-3.7-1.7c-0.5-0.2-0.7-0.8-0.5-1.3l0,0c0.2-0.5,0.8-0.7,1.3-0.5l3.3,1.5h18.4l3.3-1.5
			c0.5-0.2,1.1,0,1.3,0.5l0,0c0.2,0.5,0,1.1-0.5,1.3L770.9,61.9z"/>
	</g>
	<path class="st2" d="M749,56.6c0.4,1,0.9,2,0.7,3.1c-4.4-1-5.7-3.5-3.6-6.7C747.1,54.2,748,55.4,749,56.6z"/>
</g>
</svg>
